<svg xmlns="http://www.w3.org/2000/svg" xmlns:xlink="http://www.w3.org/1999/xlink" width="84" height="85" viewBox="0 0 84 85">
    <defs>
        <circle id="a" cx="41.72" cy="41.72" r="41.72"/>
        <linearGradient id="c" x1="50%" x2="50%" y1="0%" y2="100%">
            <stop offset="0%" stop-color="#FFB09E" stop-opacity=".575"/>
            <stop offset="0%" stop-color="#FE7865"/>
            <stop offset="100%" stop-color="#FF416C"/>
        </linearGradient>
        <path id="b" d="M36.123 37.704c-1.591 0-2.88-1.268-2.88-2.832 0-1.564 1.289-2.832 2.88-2.832 1.59 0 2.88 1.268 2.88 2.832 0 1.564-1.29 2.832-2.88 2.832zm23.64 7.591a8.252 8.252 0 0 1 2.48 5.9c0 2.321-.96 4.406-2.48 5.9a8.534 8.534 0 0 1-6 2.44c-2.04 0-3.88-.748-5.36-1.928h-22.44c-1.56 0-2.96-.59-4-1.613-1-1.023-1.64-2.4-1.64-3.933V28.578c0-1.534.6-2.91 1.64-3.933 1.04-.983 2.44-1.613 4-1.613h23.2c1.56 0 2.96.59 4 1.613 1 1.023 1.64 2.4 1.64 3.933v14.397a8.932 8.932 0 0 1 4.96 2.32zm-37.32-16.717v15.616l6.32-6.293a1.087 1.087 0 0 1 1.52 0l6.04 5.978 8.92-8.81a1.087 1.087 0 0 1 1.52 0l5.92 5.782V28.578c0-.944-.4-1.809-1.04-2.438a3.54 3.54 0 0 0-2.48-1.023h-23.2c-.96 0-1.84.393-2.48 1.023a3.423 3.423 0 0 0-1.04 2.438zm3.48 26.983h20.56c-.2-.275-.36-.629-.52-.944v-.039c-.16-.393-.28-.787-.4-1.18-.04-.157-.08-.275-.12-.433-.12-.59-.2-1.14-.2-1.73 0-2.321.96-4.406 2.48-5.9.28-.315.6-.59.96-.826.08-.04.12-.079.2-.118.12-.079.2-.118.32-.197l.6-.354c.12-.079.24-.118.4-.197.12-.078.2-.118.32-.157.16-.04.32-.118.48-.157.2-.08.36-.118.52-.158l.36-.118-5.84-5.782-8.92 8.811c-.44.393-1.12.393-1.52 0l-6.04-5.94-7.12 7.002v4.917c0 .944.4 1.81 1 2.438a3.54 3.54 0 0 0 2.48 1.023v.04zm32.28.04c1.12-1.14 1.84-2.675 1.84-4.366 0-1.73-.68-3.304-1.84-4.406-1.16-1.101-2.72-1.809-4.48-1.809-1.76 0-3.32.669-4.48 1.81-1.12 1.14-1.84 2.674-1.84 4.405 0 .432.04.865.12 1.258.04.158.12.354.16.512.04.236.12.472.2.668.08.158.16.276.24.433.12.236.24.472.4.669.12.118.24.275.36.393.16.157.32.354.48.512a6.366 6.366 0 0 0 4.36 1.73c1.76 0 3.32-.668 4.48-1.81zm-1-5.468c.6 0 1.08.472 1.08 1.062 0 .59-.48 1.062-1.08 1.062h-2.44v2.4c0 .59-.48 1.062-1.08 1.062-.6 0-1.08-.472-1.08-1.062v-2.4h-2.44c-.6 0-1.08-.472-1.08-1.062 0-.59.48-1.062 1.08-1.062h2.44v-2.399c0-.59.48-1.062 1.08-1.062.6 0 1.08.472 1.08 1.062v2.4h2.44z"/>
    </defs>
    <g fill="none" fill-rule="evenodd" transform="translate(0 .925)">
        <use fill="#FFF" xlink:href="#a"/>
        <use fill="url(#c)" xlink:href="#b"/>
    </g>
</svg>
