<svg height="150" viewBox="0 0 75 150" width="75" xmlns="http://www.w3.org/2000/svg" xmlns:xlink="http://www.w3.org/1999/xlink"><defs><path id="a" d="m21.137 0c1.991.005 2.326 2.196 3.064 3.452 1.692 2.879 2.875 6.749 6.129 8.089 2.275.936 6.522.892 9.192 1.391 1.267.236 2.947.023 3.428 1.03.382 1.374-1.568 2.419-2.285 2.988-1.022.928-2.043 1.855-3.065 2.782-1.234.981-2.832 2.069-3.531 3.555-1.204 2.56.101 6.896.727 9.583.22.947.901 3.204.104 3.864-.973.807-2.818-.461-3.532-.772-3.007-1.315-5.656-3.348-9.244-3.968-2.583-.445-4.325 1.104-5.92 1.804-1.351.618-2.701 1.236-4.051 1.854-.702.353-2.523 1.585-3.636 1.288-1.179-.314-.704-2.241-.467-3.297.483-2.158 1.921-7.257 1.246-9.428-.642-2.065-2.377-3.276-3.895-4.483-.865-.789-1.731-1.58-2.597-2.369-.929-.738-2.806-1.718-2.804-3.298.587-1.088 2.049-.876 3.48-1.133 2.665-.481 6.92-.465 9.192-1.391 3.391-1.383 4.679-5.659 6.44-8.656.671-1.141 1.002-2.101 2.025-2.885z"/><path id="b" d="m21.49 31.941c-2.236-.115-3.827 1.217-5.286 1.858-1.351.618-2.701 1.236-4.051 1.854-.702.353-2.523 1.585-3.636 1.288-1.179-.314-.704-2.241-.467-3.297.483-2.158 1.921-7.257 1.246-9.428-.642-2.065-2.377-3.276-3.895-4.483-.865-.789-1.731-1.58-2.597-2.369-.929-.738-2.806-1.718-2.804-3.298.587-1.088 2.049-.876 3.48-1.133 2.665-.481 6.92-.465 9.192-1.391 3.391-1.383 4.679-5.659 6.44-8.656.671-1.141 1.002-2.101 2.025-2.885.131 0 .236.033.353.051z"/></defs><use fill="#fff" stroke="#999" stroke-width="1.7" transform="scale(.3)" xlink:href="#a"/><use fill="#fff" stroke="#999" stroke-width="1.7" transform="matrix(.3 0 0 .3 15 0)" xlink:href="#a"/><use fill="#fff" stroke="#999" stroke-width="1.7" transform="matrix(.3 0 0 .3 30 0)" xlink:href="#a"/><use fill="#fff" stroke="#999" stroke-width="1.7" transform="matrix(.3 0 0 .3 45 0)" xlink:href="#a"/><use fill="#fff" stroke="#999" stroke-width="1.7" transform="matrix(.3 0 0 .3 60 0)" xlink:href="#a"/><use fill="#ffc200" transform="matrix(.3 0 0 .3 0 15)" xlink:href="#a"/><use fill="#ccc" transform="matrix(.3 0 0 .3 15 15)" xlink:href="#a"/><use fill="#ccc" transform="matrix(.3 0 0 .3 30 15)" xlink:href="#a"/><use fill="#ccc" transform="matrix(.3 0 0 .3 45 15)" xlink:href="#a"/><use fill="#ccc" transform="matrix(.3 0 0 .3 60 15)" xlink:href="#a"/><use fill="#ffc200" transform="matrix(.3 0 0 .3 0 30)" xlink:href="#a"/><use fill="#ccc" transform="matrix(.3 0 0 .3 15 30)" xlink:href="#a"/><use fill="#ffc200" transform="matrix(.3 0 0 .3 15 30)" xlink:href="#b"/><use fill="#ccc" transform="matrix(.3 0 0 .3 30 30)" xlink:href="#a"/><use fill="#ccc" transform="matrix(.3 0 0 .3 45 30)" xlink:href="#a"/><use fill="#ccc" transform="matrix(.3 0 0 .3 60 30)" xlink:href="#a"/><use fill="#ffc200" transform="matrix(.3 0 0 .3 0 45)" xlink:href="#a"/><use fill="#ffc200" transform="matrix(.3 0 0 .3 15 45)" xlink:href="#a"/><use fill="#ccc" transform="matrix(.3 0 0 .3 30 45)" xlink:href="#a"/><use fill="#ccc" transform="matrix(.3 0 0 .3 45 45)" xlink:href="#a"/><use fill="#ccc" transform="matrix(.3 0 0 .3 60 45)" xlink:href="#a"/><use fill="#ffc200" transform="matrix(.3 0 0 .3 0 60)" xlink:href="#a"/><use fill="#ffc200" transform="matrix(.3 0 0 .3 15 60)" xlink:href="#a"/><use fill="#ccc" transform="matrix(.3 0 0 .3 30 60)" xlink:href="#a"/><use fill="#ffc200" transform="matrix(.3 0 0 .3 30 60)" xlink:href="#b"/><use fill="#ccc" transform="matrix(.3 0 0 .3 45 60)" xlink:href="#a"/><use fill="#ccc" transform="matrix(.3 0 0 .3 60 60)" xlink:href="#a"/><use fill="#ffc200" transform="matrix(.3 0 0 .3 0 75)" xlink:href="#a"/><use fill="#ffc200" transform="matrix(.3 0 0 .3 15 75)" xlink:href="#a"/><use fill="#ffc200" transform="matrix(.3 0 0 .3 30 75)" xlink:href="#a"/><use fill="#ccc" transform="matrix(.3 0 0 .3 45 75)" xlink:href="#a"/><use fill="#ccc" transform="matrix(.3 0 0 .3 60 75)" xlink:href="#a"/><use fill="#ffc200" transform="matrix(.3 0 0 .3 0 90)" xlink:href="#a"/><use fill="#ffc200" transform="matrix(.3 0 0 .3 15 90)" xlink:href="#a"/><use fill="#ffc200" transform="matrix(.3 0 0 .3 30 90)" xlink:href="#a"/><use fill="#ccc" transform="matrix(.3 0 0 .3 45 90)" xlink:href="#a"/><use fill="#ffc200" transform="matrix(.3 0 0 .3 45 90)" xlink:href="#b"/><use fill="#ccc" transform="matrix(.3 0 0 .3 60 90)" xlink:href="#a"/><use fill="#ffc200" transform="matrix(.3 0 0 .3 0 105)" xlink:href="#a"/><use fill="#ffc200" transform="matrix(.3 0 0 .3 15 105)" xlink:href="#a"/><use fill="#ffc200" transform="matrix(.3 0 0 .3 30 105)" xlink:href="#a"/><use fill="#ffc200" transform="matrix(.3 0 0 .3 45 105)" xlink:href="#a"/><use fill="#ccc" transform="matrix(.3 0 0 .3 60 105)" xlink:href="#a"/><use fill="#ffc200" transform="matrix(.3 0 0 .3 0 120)" xlink:href="#a"/><use fill="#ffc200" transform="matrix(.3 0 0 .3 15 120)" xlink:href="#a"/><use fill="#ffc200" transform="matrix(.3 0 0 .3 30 120)" xlink:href="#a"/><use fill="#ffc200" transform="matrix(.3 0 0 .3 45 120)" xlink:href="#a"/><use fill="#ccc" transform="matrix(.3 0 0 .3 60 120)" xlink:href="#a"/><g fill="#ffc200"><use transform="matrix(.3 0 0 .3 60 120)" xlink:href="#b"/><use transform="matrix(.3 0 0 .3 0 135)" xlink:href="#a"/><use transform="matrix(.3 0 0 .3 15 135)" xlink:href="#a"/><use transform="matrix(.3 0 0 .3 30 135)" xlink:href="#a"/><use transform="matrix(.3 0 0 .3 45 135)" xlink:href="#a"/><use transform="matrix(.3 0 0 .3 60 135)" xlink:href="#a"/></g></svg>