<svg xmlns="http://www.w3.org/2000/svg" xmlns:xlink="http://www.w3.org/1999/xlink" width="1280" height="422" style="background:#fff">
  <defs>
    <path id="a" d="M.0006.4799H1280v120.26H.0006z"/>
    <path id="c" d="M0 422h1280V0H0z"/>
    <path id="e" d="M2.064 5.782C.539 8.207.629 14.499.629 14.499l1.837 3.067s.4 1.372 3.289-4.844C8.644 6.507 6.156.936 6.156.936S3.588 3.357 2.064 5.782"/>
  </defs>
  <g fill="none" fill-rule="evenodd">
    <path fill="#FFF" d="M.463 421.74h1279.064V.001H.463z"/>
    <path fill="#D8EDFB" d="M626.7843 317.5874l-10.922-.196-38.795.196v7.817h-5.041l-.24 11.284h-15.864v-5.891h-4.346v-9.582l-1.678-1.353v46.393h-5.77v-2.935h-4.423v-12.839h-2.602v7.52h-2.341v4.14h-.678v-15.484h-12.917v-7.729h-4.944v-16.91h-7.025v-7.129h-22.376v17.86h-13.53v-13.885h-4.162v-6.837h-7.806v17.434h-2.332v-10.597h-4.164v-6.837h-7.806v17.434h-17.433v-24.982h-16.13v9.629h-5.696v20.788h-23.011l-4.077 6.251v17.297h-5.84v-12.978h-4.424v-6.591h-20.651v-18.476h-4.343v19.696h-4.146v-13.094h-4.423v19.94h-3.383v-10.551h-6.504v-17.48h-10.162v6.173h-8.451v-10.506h-4.118l-4.333 4.333v4.612h-4.28v-9.889h-14.371v11.45h-13.128v9.431h-4.896v-23.222h-14.057v10.772h-6.505v18.031h-12.523v18.303h-5.811v-12.978h-4.423v-6.591h-20.651v-18.476h-4.343v19.696h-4.146v-13.094h-4.424v19.94h-3.382v-10.551h-6.505v-17.48h-10.161v6.173h-8.451v-10.507h-4.118l-4.333 4.334v4.612h-4.28v-9.888h-14.372v11.449h-13.126v9.431h-4.897v-23.222h-14.056v10.772h-6.505v18.031h-12.524v22.33h-9.593v-12.706h-5.464v10.951h-2.601v-2.623h-3.383v6.589h-6.765v-2.449h-5.204v-15.246h-2.861v11.106h-2.603v8.254H.7033v-21.827h-.703v22.169l.703-.001h237.413v-.214l148.332.257 70.825.518v.274l360.296-.835h237.413v-.214l148.331.257 72.544.53v-48.305h-4.164v-6.837h-7.805v17.434h-17.433v-24.982h-16.132v9.629h-5.696v13.47h-23.011l-4.076 6.252v24.614h-5.84v-12.978h-4.424v-4.888h-16.449v-20.179h-4.343v-4.155h-8.348v10.757h-4.423v-11.757h-3.383v21.146h-6.505v-17.48h-10.161v6.173h-8.451v-10.506h-4.117l-4.334 4.333v4.612h-4.28v-9.889h-14.372v11.45h-13.127v9.431h-4.896v-23.222h-14.058v10.772h-6.503v18.031h-12.524v18.303h-5.81v-12.978h-4.424v-6.591h-20.651v-18.476h-4.343v19.696h-4.147v-13.094h-4.423v19.94h-3.382v-10.551h-6.505v-17.48h-10.162v6.173h-8.451v-10.507h-4.117l-4.333 4.334v4.612h-4.28v-9.888h-14.372v11.449h-13.127v9.431h-4.896v-23.222h-14.058v10.772h-6.504v18.031h-12.523v22.33h-9.593v-12.706h-5.464v10.951h-2.602v-2.623h-3.382v6.589h-6.764v-2.449h-5.205v-15.246h-2.862v11.106h-2.601v8.254h-40.452v-21.827h-3.644v13.97h-10.147v-12.978h-4.423v-6.591h-20.651v-18.476h-4.342v19.696h-4.147v-13.094h-4.424v19.702h-3.382v-10.313h-6.505v-17.48h-9.294v-3.975h-9.318v-.359h-4.118l-.358.359h-8.254v-1.301h-14.372v5.276h-3.648v-6.837h-7.806v13.01h-1.674v4.424h-4.896v-18.215h-10.862v-6.767h-16.131v9.629h-5.696v20.788h-11.84v-3.495h-4.801v-19.117l-4.081-.702v-14.927l-12.21-.168z"/>
    <g transform="translate(0 301)">
      <mask id="b" fill="#fff">
        <use xlink:href="#a"/>
      </mask>
      <path fill="#CFDDEF" d="M1260.7826 42.2339l-4.438-.041-.001-2.91h4.439v2.951zm0 8.358l-4.44-.071.001-2.851h4.439v2.922zm-4.091 11.739h-2.791v-4.511h-.389v4.511h-2.792v-4.699h5.972v4.699zm-10.102-14.661h4.439v2.932l-4.439-.01v-2.922zm0-5.369h4.439v-3.018h-4.439v3.018zm-65.985-7.334h4.053v-4.032h-4.053v4.032zm-5.857 0h4.053v-4.032h-4.053v4.032zm-5.859 0h4.054v-4.032h-4.054v4.032zm0 6.253h4.054v-4.032h-4.054v4.032zm-6.007-6.253h4.054v-4.032h-4.054v4.032zm0 6.253h4.054v-4.032h-4.054v4.032zm0 5.84h4.054v-4.032h-4.054v4.032zm-28.106-5.839h3.972v-1.854h-3.972v1.854zm0 4.149h3.972v-1.854h-3.972v1.854zm-6.621-4.149h3.972v-1.854h-3.972v1.854zm0 4.149h3.972v-1.854h-3.972v1.854zm-44.547-3.821h4.439v-3.017h-4.439v3.017zm4.439 8.292l-4.44.011v-2.932h4.44v2.921zm-4.13 12.49h-2.792v-5.26h-.389v5.26h-2.792v-5.449h5.973v5.449zm-10.064-15.411h4.441v2.851l-4.441.07v-2.921zm0-8.387h4.441l-.001 2.91-4.44.041v-2.951zm-61.044-4.248h4.912v-2.293h-4.912v2.293zm0 5.131h4.912v-2.293h-4.912v2.293zm-8.186-5.131h4.911v-2.293h-4.911v2.293zm0 5.131h4.911v-2.293h-4.911v2.293zm-70.92 1.564h3.972v-1.854h-3.972v1.854zm0 4.149h3.972v-1.854h-3.972v1.854zm-5.837-4.149h3.188v-1.854h-3.188v1.854zm0 4.149h3.188v-1.854h-3.188v1.854zm-11.729-10.273l-3.553-.047-.001-3.797h3.554v3.844zm0 10.898l-3.555-.082.001-3.72h3.554v3.802zm-3.241 16.577h-2.507v-7.141h-.349v7.141h-2.506v-7.385h5.362v7.385zm-9.071-20.379h3.986v3.825l-3.986-.014v-3.811zm0-7.004h3.986v-3.936h-3.986v3.936zm-39.578 4.509h3.566v-2.417h-3.566v2.417zm0 5.411h3.566v-2.417h-3.566v2.417zm-5.944 0h3.566v-2.417h-3.566v2.417zm0-10.349h3.566v-2.417h-3.566v2.417zm-37.367 4.984h3.972v-1.854h-3.972v1.854zm0 4.148h3.972v-1.854h-3.972v1.854zm-6.62-4.148h3.972v-1.854h-3.972v1.854zm0 4.148h3.972v-1.854h-3.972v1.854zm-42.3-28.804h-2.432v-2.918h2.432v2.918zm0 4.767h-2.432v-2.918h2.432v2.918zm0 10.658h-2.432v-2.917h2.432v2.917zm-7.821 32.059h3.603v-4.468h-3.603v4.468zm-1.786-47.484h-2.432v-2.918h2.432v2.918zm0 4.767h-2.432v-2.918h2.432v2.918zm0 4.801h-2.432v-2.918h2.432v2.918zm0 5.857h-2.432v-2.917h2.432v2.917zm0 4.767h-2.432v-2.918h2.432v2.918zm0 4.8h-2.432v-2.917h2.432v2.917zm0 5.972h-2.432v-2.917h2.432v2.917zm0 4.766h-2.432V47.6589h2.432v2.918zm0 4.801h-2.432v-2.918h2.432v2.918zm2.371-.025v-2.893h2.433v2.918h-2.433v-.025zm0-4.776h2.433v-2.918h-2.433v2.918zm0-4.766h2.433v-2.917h-2.433v2.917zm0-15.539h2.433v-2.917h-2.433v2.917zm0-5.883v-2.892h2.433v2.918h-2.433v-.026zm0-4.775h2.433v-2.918h-2.433v2.918zm0-4.767h2.433v-2.918h-2.433v2.918zm-23.043 26.395l-4.438-.04-.001-2.912h4.439v2.952zm0 8.358l-4.44-.071.001-2.852h4.439v2.923zm-4.091 12.731h-2.792v-5.502h-.388v5.502h-2.792v-5.69h5.972v5.69zm-10.102-15.654h4.439v2.934l-4.439-.011v-2.923zm0-5.369h4.439v-3.018h-4.439v3.018zm-44.081-.328h3.972v-1.854h-3.972v1.854zm0 4.149h3.972v-1.854h-3.972v1.854zm-6.62-4.149h3.972v-1.854h-3.972v1.854zm0 4.149h3.972v-1.854h-3.972v1.854zm-130.045-12.316h-4.28v-5.134h4.28v5.134zm0 8.386h-4.28v-5.134h4.28v5.134zm0 8.446h-4.28v-5.134h4.28v5.134zm-13.761 12.653h6.34v-8.28h-6.34v8.28zm-3.142-29.485h-4.279v-5.134h4.279v5.134zm0 8.386h-4.279v-5.134h4.279v5.134zm0 8.446h-4.279v-5.134h4.279v5.134zm4.172-.044v-5.09h4.279v5.134h-4.279v-.044zm0-8.402h4.279v-5.134h-4.279v5.134zm0-8.386h4.279v-5.134h-4.279v5.134zm-29.354 8.187l-3.957-.037-.001-2.911h3.958v2.948zm0 8.355l-3.959-.063.001-2.852h3.958v2.915zm-3.61 12.916h-2.792v-5.681h-.388v5.681h-2.792v-5.868h5.972v5.868zm-10.102-15.831h4.439v2.933l-4.439-.011v-2.922zm0-5.37h4.439v-3.018h-4.439v3.018zm-47.083 1.164l-4.439-.041-.001-2.91h4.44v2.951zm0 8.358l-4.441-.071.001-2.851h4.44v2.922zm-4.091 11.739h-2.791v-4.511h-.39v4.511h-2.791v-4.699h5.972v4.699zm-10.103-14.661h4.441v2.932l-4.441-.01v-2.922zm0-5.369h4.44v-3.018h-4.44v3.018zm-65.983-7.334h4.052v-4.032h-4.052v4.032zm-5.859 0h4.054v-4.032h-4.054v4.032zm-5.857 0h4.053v-4.032h-4.053v4.032zm0 6.253h4.053v-4.032h-4.053v4.032zm-6.007-6.253h4.053v-4.032h-4.053v4.032zm0 6.253h4.053v-4.032h-4.053v4.032zm0 5.84h4.053v-4.032h-4.053v4.032zm-28.107-5.839h3.972v-1.854h-3.972v1.854zm0 4.149h3.972v-1.854h-3.972v1.854zm-6.621-4.149h3.972v-1.854h-3.972v1.854zm0 4.149h3.972v-1.854h-3.972v1.854zm-44.548-3.821h4.44v-3.017h-4.44v3.017zm4.44 8.292l-4.44.011v-2.932h4.44v2.921zm-4.13 12.49h-2.791v-5.26h-.39v5.26h-2.791v-5.449h5.972v5.449zm-10.063-15.411h4.44v2.851l-4.44.07v-2.921zm0-8.387h4.44l-.001 2.91-4.439.041v-2.951zm-61.044-4.248h4.911v-2.293h-4.911v2.293zm0 5.131h4.911v-2.293h-4.911v2.293zm-8.187-5.131h4.912v-2.293h-4.912v2.293zm0 5.131h4.912v-2.293h-4.912v2.293zm-70.921 1.564h3.972v-1.854h-3.972v1.854zm0 4.149h3.972v-1.854h-3.972v1.854zm-5.836-4.149h3.188v-1.854h-3.188v1.854zm0 4.149h3.188v-1.854h-3.188v1.854zm-11.729-10.273l-3.553-.047-.001-3.797h3.554v3.844zm0 10.898l-3.554-.082v-3.72h3.554v3.802zm-3.241 16.577h-2.507v-7.141h-.348v7.141h-2.507v-7.385h5.362v7.385zm-9.07-20.379h3.986v3.825l-3.986-.014v-3.811zm0-7.004h3.986v-3.936h-3.986v3.936zm-39.578-.429h3.565v-2.417h-3.565v2.417zm0 5.411h3.565v-2.417h-3.565v2.417zm-5.944-5.411h3.565v-2.417h-3.565v2.417zm0 5.411h3.565v-2.417h-3.565v2.417zm-37.367-.427h3.972v-1.854h-3.972v1.854zm0 4.148h3.972v-1.854h-3.972v1.854zm1262.865-28.15v46.83h-1.725v-27.701h-23.011v27.701h-10.956v-33.803h-13.842v33.803h-2.601v-39.359h-9.851v39.359h-2.624v-25.763h-6.452v3.64h-4.482v22.123h-3.483v-32.777c0-.147-.065-.287-.177-.383l-13.142-11.231c-.189-.161-.466-.161-.655 0l-13.142 11.231c-.112.096-.177.236-.177.383v32.777h-19.513v-25.193c0-.081-.035-.159-.096-.212l-7.263-6.206c-.105-.09-.258-.09-.361 0l-7.263 6.206c-.063.053-.098.131-.098.212v25.193h-2.185v-38.879h-9.851v38.879h-2.896v-33.323h-13.841v33.323h-4.814v-28.451h-22.888v-18.757h-13.063v47.208h-9.979v-11.081c0-.101-.045-.197-.121-.261l-8.982-7.676c-.129-.11-.318-.11-.446 0h-16.32v-14.078c0-.101-.044-.196-.121-.262l-8.981-7.675c-.129-.11-.318-.11-.447 0l-8.982 7.675c-.076.066-.12.161-.12.262v14.078h-15.004v-22.098h-10.349v22.098h-2.708v19.018h-1.746v-35.278h-14.542v35.278h-5.793v-39.121h-9.851v39.121h-2.199c.001-.012.012-.02.012-.032v-25.403c0-.081-.035-.158-.097-.211l-7.263-6.207c-.103-.089-.257-.089-.36 0l-4.22 3.606V.4799h-11.729v24.466h-16.252v37.385h-4.323v-43.741h-12.427v43.741h-2.6v-50.988h-8.845v6.569h-1.963v-.004 3.45c0-.105-.032-.206-.088-.275l-6.52-4.64c-.094-.116-.232-.116-.324 0l-6.522 4.64c-.054.069-.087.17-.087.275v40.973h-6.454v-15.529h-22.691v-11.383c0-.081-.036-.159-.098-.211l-7.263-6.207c-.103-.089-.257-.089-.361 0l-7.263 6.207c-.061.052-.097.13-.097.211v11.383h-13.197c-.104-.089-.257-.089-.361 0l-7.263 6.207c-.061.053-.097.13-.097.211v9.072c0 .014.013.024.015.039h-16.167V9.2549h-17.786V62.3309h-2.785v-34.861h-6.531v34.861h-1.622v-28.692h-23.01v28.692h-4.814v-33.565h-13.841v33.565h-2.896v-39.121h-9.85v39.121h-2.2c.002-.012.013-.02.013-.032v-25.403c0-.081-.035-.158-.096-.211l-7.264-6.207c-.104-.089-.257-.089-.361 0l-7.263 6.207c-.062.053-.097.13-.097.211v25.411c0 .009.009.014.01.024h-6.938v-24.38h-6.452v3.639h-4.481v20.741h-3.086v-15.582h-2.277v-7.543c0-.148-.064-.287-.176-.383l-13.143-11.232c-.188-.161-.466-.161-.653 0l-13.144 11.232c-.111.096-.175.235-.175.383V50.7719h-23.1v-.934h-1.71v-11.891c0-.111-.049-.217-.133-.288l-9.87-8.435c-.142-.121-.35-.121-.491 0l-9.87 8.435c-.084.071-.133.177-.133.288v24.384h-2.42v-21.886h-9.065v21.886h-4.458v-25.525h-6.452v25.525h-4.416v-39.359h-31.293v39.359h-2.784v-47.688h-13.063v18.758h-18.101v28.93h-7.971v-33.803h-13.84v33.803h-1.665v-46.83h-13.063v46.83h-1.727v-27.701h-23.01v27.701h-10.956v-33.803h-13.841v33.803h-2.603v-39.359h-9.85v39.359h-2.624v-25.763h-6.451v3.64h-4.483v22.123h-3.483v-32.777c0-.147-.065-.287-.177-.383l-13.143-11.231c-.187-.161-.464-.161-.653 0l-13.143 11.231c-.112.096-.176.236-.176.383v32.777h-19.513v-25.193c0-.081-.035-.159-.098-.212l-7.262-6.206c-.104-.09-.257-.09-.362 0l-7.262 6.206c-.062.053-.098.131-.098.212v25.193h-2.186v-38.879h-9.85v38.879h-2.897v-33.323h-13.84v33.323h-4.814v-28.451h-22.889v-18.757h-13.062v47.208h-9.98v-11.081c0-.101-.044-.197-.12-.261l-8.982-7.676c-.128-.11-.318-.11-.446 0h-16.32v-14.078c0-.101-.044-.196-.121-.262l-8.981-7.675c-.129-.11-.319-.11-.448 0l-8.981 7.675c-.076.066-.12.161-.12.262v14.078h-15.004v-22.098h-10.35v22.098h-2.708v19.018h-1.746v-35.278h-14.542v35.278h-5.793v-39.121h-9.85v39.121h-2.199c.001-.012.012-.02.012-.032v-25.403c0-.081-.035-.158-.096-.211l-7.263-6.207c-.105-.089-.258-.089-.362 0l-4.219 3.606V.4799h-11.729v24.466h-16.252v37.385h-4.323v-43.741h-12.427v43.741h-2.6v-50.988h-8.845v50.988h-1.963v-33.137c0-.106-.031-.206-.087-.275l-6.521-4.64c-.093-.116-.231-.116-.325 0l-6.52 4.64c-.056.069-.088.169-.088.275v33.137h-6.454v-15.529h-22.691v-11.383c0-.081-.036-.159-.098-.211l-7.263-6.207c-.103-.089-.257-.089-.361 0l-2.453 2.097v6.551h1.423v1.854H.0006v2.294h1.423v1.854H.0006v77.089h1280V15.5009h-13.064z" mask="url(#b)"/>
    </g>
    <path fill="#FFF" d="M887.0873 266.2163c.64-4.599 3.509-8.921 7.678-10.913 4.17-1.992 9.543-1.39 12.922 1.773 3.379 3.163 3.945 8.803 1.431 12.698-1.201 1.861-2.666 3.228-4.037 4.966-1.168 1.481-1.993 3.479-1.587 5.256l.306.858c.008.015.015.031.022.048l-.013-.023.056.158 1.21.748-.633 3.077.116 5.13-12.061-.789v-4.309l.966-1.488.585-1.047.268-.474.531-1.978v-1.952c-1.561-.048-3.129-.568-4.345-1.544-2.918-2.339-3.933-6.478-3.415-10.195"/>
    <path fill="#FFF" d="M894.3168 281.8853l.53-1.978v-1.952c-1.56-.048-3.129-.568-4.344-1.544-2.918-2.338-3.933-6.478-3.415-10.195.639-4.599 3.508-8.921 7.677-10.913 4.17-1.992 9.543-1.39 12.922 1.773 3.38 3.163 3.945 8.803 1.432 12.698-1.201 1.861-2.666 3.228-4.037 4.966-.06.077-.119.155-.176.233.62-1.609-1.791-2.936-2.684-1.309-.011.022-.022.043-.033.065-.114-.123-.261-.233-.445-.323-.458-.222-.898-.361-1.411-.299-.283.034-.55.12-.78.255-.676.085-1.352.178-2.029.262-.964.12-1.706.865-1.444 1.907.239.952 1.038 1.512 1.952 1.711.451.098 1.934-.152 1.953-.136.207 1.663-2.835 1.557-2.929 2.51-.049.494.445.789.175 1.471-.233.593-2.471.84-2.89.978-.864.282-1.027.536-1.474 1.382-.946 1.786.72 4.696 2.309 5.557.497.269 1.006.249 1.422.027.557.523 1.529.416 2.078-.075.055-.048.104-.099.151-.152.119.114.252.217.403.303 1.116.63 2.332.011 2.97-.982.641-1 .702-2.077.427-3.205-.013-.05-.024-.102-.036-.156.138.254.264.515.38.78.289.663.916.846 1.503.711l.084 3.737-12.06-.789v-4.309"/>
    <path fill="#FFF" d="M909.1185 269.7739c2.341-4.001 1.948-9.534-1.432-12.697-3.379-3.163-8.752-3.766-12.922-1.774-4.168 1.992-7.038 6.315-7.677 10.913-.518 3.717.507 7.844 3.415 10.196 6.659 5.386 16.841-3.604 18.616-6.638"/>
    <path fill="#FFF" d="M909.2767 264.0405c1.755-1.808 3.604-3.676 5.988-4.471 2.384-.794 5.454-.122 6.566 2.143.94 1.916.197 4.271-1.037 6.011-1.235 1.739-2.918 3.116-4.162 4.848-.937 1.307-1.568 3.221-.52 4.439 1.014 1.177 2.866.902 4.369.526-1.941 1.434-4.72 1.612-6.828.44-2.107-1.173-3.433-3.636-3.257-6.052.176-2.416 1.845-4.659 4.1-5.511-1.596-.114-3.191-.229-4.786-.344"/>
    <path fill="#FFF" d="M899.8636 261.6118c.369 2.825 1.811 6.692 5.706 6.281l.052.019c-1.186 1.334-2.558 5.774-2.064 8.846l.097.601s.434-1.771 2.358-3.691c1.925-1.919 4.049-3.945 4.643-6.734.738-3.464-.207-5.849-.947-7.126-.741-1.276-9.845 1.445-9.845 1.445"/>
    <path fill="#FFF" d="M888.0892 258.9116c-.011-.082-.004-.116.147-2.331.186-2.731.178-2.631.19-2.805.128-1.922.049-3.514 1.693-5.206 1.111-1.142 3.02-1.507 4.597-1.692 2.349-.277 4.491-1.333 7.216-.863 1.87.323 4.394.881 6.058 3.065 1.62 2.126 2.56 2.98 2.292 6.353-.256 3.241.061 3.771-.226 4.51-.624 1.61-21.546 2.219-21.967-1.031"/>
    <path fill="#FFF" d="M901.8226 245.981c0 .463-6.125-1.151-6.335 5.791-.099 3.236-.196 5.007-.177 9.926l-5.182-.914c-.139-2.611-.344-4.744-.403-7.571-.049-2.402-.824-5.917 1.658-7.068 2.458-1.14 5.701-.749 7.745-.458l2.694.294z"/>
    <path fill="#FFF" d="M888.1908 259.2095s-2.068 1.69-5.177 2.914c9.388 1.028 14.627 1.071 23.784-1.251-10.913.416-13.368.131-13.368.131s-3.364-.333-5.239-1.794M902.3383 421.937c-1.107-3.517-2.395-50.616-4.378-53.328-1.668-2.279-3.531 47.592-4.849 53.328h-13.305c-1.095-3.341 1.069-60.977 1.415-63.249.366-2.41 33.446-1.4 33.446-1.4s2.908 55.615-1.31 64.649h-11.019zM883.0902 294.5757c-4.51 4.101-6.254 11.296-7.214 15.083-1.045 4.129-2.765 9.527-3.639 11.318-.639 1.309-3.586 3.475-5.487 5.086-3.584 3.037-7.107 5.839-11.085 8.454-.758.497-1.605.903-2.156 1.623-.551.722-.761 1.794-.237 2.537.428.609-.02 1.491.718 1.418.74-.073 2.69-1.048 3.36-1.372 5.395-2.609 10.791-5.217 16.186-7.826 2.374-1.147 4.772-2.31 6.818-3.979 2.046-1.669 3.351-4.022 4.232-6.519 1.724-4.886 1.258-25.636 1.258-25.636l-2.754-.187z"/>
    <path fill="#FFF" d="M878.8754 322.9819c-1.669-1.729-3.666-3.082-5.7-4.357.878-2.466 1.959-6.036 2.701-8.966.96-3.787 2.704-10.983 7.214-15.083l2.754.186s.466 20.751-1.258 25.637c-.757 2.146-1.83 4.186-3.416 5.776-.586-1.152-1.36-2.224-2.295-3.193"/>
    <path fill="#FFF" d="M880.6595 324.4194s-2.1-2.517-3.663-3.55c-1.564-1.034-2.993-1.978-2.993-1.978s-.674-.866-1.052-.253-.601 1.196-.601 1.646c0 .45 6.42 8.062 7.237 8.314.815.252 2.278-.842 2.501-1.567.223-.725-1.429-2.612-1.429-2.612"/>
    <path fill="#FFF" d="M880.6595 324.4194s-2.1-2.517-3.663-3.55c-1.564-1.034-2.993-1.978-2.993-1.978s-.674-.866-1.052-.253-.601 1.196-.601 1.646c0 .45 6.42 8.062 7.237 8.314.815.252 2.278-.842 2.501-1.567.223-.725-1.429-2.612-1.429-2.612M913.975 352.8228c.032.933.489 1.788.806 2.666.315.878.473 1.92-.042 2.696-.494.742-1.441 1.005-2.307 1.202-9.695 2.213-19.978 3.191-29.485.265-.637-.195-1.303-.432-1.726-.949-.64-.782-.515-1.942-.184-2.898.33-.956.834-1.883.855-2.895l1.47-.087 29.662-.867.951.867z"/>
    <path fill="#FFF" d="M892.5111 356.1362c.123.633-.146 4.521-.013 5.151l-2.191-.108c-.143-.698.058-4.477-.073-5.177.74.096 1.532.078 2.277.134M894.2162 282.355c-1.221-.481-2.512-1.513-2.413-1.959.149-.677 3.079-.875 3.079-.875l-.434 2.098-.232.736zM855.6654 334.5171c.13-.086.257-.173.386-.259 1.774 1.131 3.873 1.821 5.933 2.224l-4.634 2.241c-.67.323-2.621 1.299-3.36 1.371-.738.073-.29-.808-.719-1.418-.523-.742-.313-1.814.238-2.536.551-.721 1.399-1.126 2.156-1.623"/>
    <path fill="#FFF" d="M905.7035 284.6519s2.044 1.935 8.656 7.556c6.613 5.621 4.954 9.067 4.657 14.334-.297 5.265 0 12.927-.093 19.828-.093 6.899 1.117 13.242.661 18.863-.457 5.62-3.361 9.087-4.293 9.836-.932.75-1.117.844-4.843 1.78-3.725.937-10.431 1.499-14.528 1.781-4.099.281-10.896-.563-13.026-1.499-2.128-.937-2.315-1.274-2.315-1.274-.105-.581-.229-1.159-.356-1.735-.557-2.501-.997-4.965-1.128-7.531-.138-2.673-.101-5.356-.11-8.033-.019-5.426-.038-10.851-.057-16.277-.018-5.287-.203-10.608.085-15.89.255-4.685 1.063-9.448 3.413-13.566 1.98-3.471 5.025-6.425 8.872-7.681.952-.311 1.728-.492 1.728-.492l2.469 2.695.921.717.906-.056 1.353-.382 5.955-4.042 1.073 1.068z"/>
    <path fill="#FFF" d="M891.7904 280.5513c-.318 1.416-.495 4.481-.312 4.728.967 1.289 4.123 3.787 4.66 2.75.034-1.966-.143-3.177.14-5.123-1.986-.292-4.529-2.224-4.475-2.51M905.8842 283.9321c.014.224.025.458-.065.663-.15.339-.528.5-.87.638-1.781.717-3.492 1.612-5.098 2.668-.359.235-.845.476-1.176.205-.239-.195-.249-.553-.237-.863.045-1.198.397-4.529.397-4.529s4.39-1.259 6.324-1.435c.204-.018.446-.063.522-.252 0 0 .143 1.911.203 2.905M856.6429 339.4409c-.281-1.431-.126-1.845-.092-3.303.033-1.457-.385-3.107-1.659-3.801-.995-.543-2.211-.344-3.323-.129-1.559.299-3.32.743-4.067 2.151-.497.937-.401 2.069-.267 3.124.19 1.505.437 3.028 1.091 4.396.653 1.368 1.77 2.578 3.214 3.013 1.471.444 3.173-.016 4.225-1.14 1.053-1.125 1.406-2.862.878-4.311"/>
    <path fill="#FFF" d="M852.014 345.1978c-.005.729.002 1.472.23 2.162.229.691.719 1.333 1.408 1.558.744.243 1.602-.063 2.119-.654.517-.59.717-1.418.649-2.202-.066-.784-.379-1.53-.781-2.205M850.2006 332.4331c.341-.324.082-.957-.351-1.139-.433-.181-.925-.057-1.378.068-.608.169-1.216.338-1.825.506-.154.043-.332.082-.463-.01-.11-.078-.147-.222-.176-.354-.161-.727-.932-3.605-1.093-4.333-.089-.4-.178-.823-.06-1.216.117-.393.518-.734.913-.63.496.129.613.783.574 1.297-.039.514.51 3.275.905 3.605.378.315.941.174 1.407.016.571-.195 1.144-.389 1.715-.583.273-.093.608-.174.821.02.132.121.17.311.201.487.117.66.234 1.318.35 1.977M891.7748 358.4966c-.765-.104-1.525-.076-2.298-.129-3.726-23.405-1.342-47.969 6.924-70.171l.016-.133c.301-.018.603-.037.906-.055-7.61 22.55-9.512 47.014-5.548 70.488"/>
    <path fill="#FFF" d="M896.9056 300.6694c-.3.105-.417 1.194-.851 2.08-.436.889-.559 2.124-.559 2.124s5.919 2.883 6.24 2.462c.153-.202.155-1.338.62-2.337.511-1.096.819-2.473.819-2.473s-5.641-2.077-6.269-1.856M894.3314 296.7153c.369-.416.479-.308 1.029-.369.146-.013.296.015.42.09.343.206.493.633.515 1.033.035.682-.335 1.448-.999 1.586-.542.113-1.119-.263-1.309-.786-.19-.524-.025-1.139.344-1.554m-1.053 1.487c.042.632.169 1.326.665 1.715.658.517 1.688.212 2.22-.434.531-.648.685-1.522.778-2.356.247-2.201.197-4.516-.763-6.51l-.701-.152c-1.585 2.223-2.376 5.007-2.199 7.737M903.5326 280.2241c.693.098 1.757.271 1.924.35.168.079.293.28.224.453-.076.189-.319.224-.521.252-.823.112-1.208.18-1.208.18l-.338-1.006-.081-.229zM853.3363 323.5337l-13.196-18.768c-.5-.819-.715-1.636-.89-1.602-.06.012-.561-.177-.622.068-.02.081.406.479.385.591l-2.953 23.922c-.171.889-.169 1.595.427 1.974.372.235.992.159 1.27.091l14.701-3.584c1.028-.251 1.495-1.682.878-2.692"/>
    <path fill="#FFF" d="M852.808 323.4907l-13.195-18.767c-.73-1.193-.852-2.381-1.128-.944l-2.953 23.923c-.234 1.218.669 2.315 1.697 2.064l14.701-3.584c1.028-.251 1.495-1.681.878-2.692"/>
    <path fill="#FFF" d="M845.5258 327.9409c.104-.443-.056-.907-.213-1.327-.357-.953-1.259-5.461-1.732-6.34-.048-.09-.101-.183-.18-.232-.079-.051-.192-.043-.243.045-.041.073-.028.169-.014.254.195 1.144.934 5.836 1.129 6.979.037.219.086.46.241.585.15.121.349.095.526.046.175-.048.359-.114.534-.056M885.4672 339.8989s-4.596.472-5.921 1.497c-1.326 1.025-3.87 4.413-3.78 4.838.09.425.465 1.009 1.557 1.228 1.093.22 2.103.663 2.103.663s.3-.409.17-1.111c-.129-.702-.907-1.024-.907-1.024.208-.354 1.269-1.929 1.269-1.929s.559 1.511 2.82 1.357c2.996-.206 2.689-5.519 2.689-5.519M904.9681 328.5728c.049-.021 3.389-22.479 6.689-31.177.431-1.135 2.392-2.996 4.531-2.166 3.878 1.506 3.23 6.835 3.377 9.258.336 5.547-.176 10.271-.557 15.815-.286 4.179-1.545 10.02-3.837 13.325-.663-.489-9.807-4.186-10.203-5.055"/>
    <path fill="#FFF" d="M876.6488 347.063c.585-2.055 2.326-5.421 4.06-6.587 1.636-1.1 7.851-2.372 9.345-2.967 1.388-.552 11.866-5.672 15.238-8.022 2.842.305 1.94 2.247 4.794 2.338 1.787.056 3.568.201 5.353.286-.058.372-.152.723-.291 1.049-2.295 5.417-16.638 8.672-26.847 10.091-.516.072-1.04.158-1.561.204-.003.001-.004.002-.007.003-.831.302-1.355.401-1.369 2.164-.014 1.762-1.159 2.513-1.159 2.513s-.547.863-1.323.751c-.63-.091-.394-.207-.911-.329-.243-.057-.239.315-.926.27-.323-.022-.569-.202-.922-.16-.353.042-.368.377-.819.342-.452-.036-.653-.222-.969-.144-.468.116-.678.493-1.29.499-.313.003-.98-.246-.396-2.301"/>
    <path fill="#FFF" d="M904.3285 328.2017c.012-.045.09-.326.723-.407l.042.243c1.195.325 3.826 1.98 5.341 2.377 1.372.359 4.396 1.123 5.811 1.711.05.02-.002-.425.044-.403.408.183.714.904.714.904-.082.661-.158 1.14-.375 1.245-.218.103.254.916-.396 1.101-.648.185-4.557-.678-6.513-1.463-1.955-.786-5.702-3.532-5.785-4.164-.075-.571.318-.84.394-1.144"/>
    <path fill="#FFF" d="M904.2719 328.2505c.456-.592 4.329 1.999 6.176 2.481 1.846.484 6.649 1.552 6.567 2.213-.081.66-.157 1.14-.375 1.244-.217.104.254.916-.394 1.102-.65.186-4.559-.679-6.514-1.464-1.955-.785-5.697-3.532-5.785-4.164-.087-.633.064-1.073.325-1.412"/>
    <path fill="#EDEDED" d="M887.0873 266.2163c.64-4.599 3.509-8.921 7.678-10.913 4.17-1.992 9.543-1.39 12.922 1.773 3.379 3.163 3.945 8.803 1.431 12.698-1.201 1.861-2.666 3.228-4.037 4.966-1.168 1.481-1.993 3.479-1.587 5.256l.306.858c.008.015.015.031.022.048l-.013-.023.056.158 1.21.748-.633 3.077.116 5.13-12.061-.789v-4.309l.966-1.488.585-1.047.268-.474.531-1.978v-1.952c-1.561-.048-3.129-.568-4.345-1.544-2.918-2.339-3.933-6.478-3.415-10.195"/>
    <path fill="#E2E2E2" d="M894.3168 281.8853l.511-1.982.019-1.948c-1.56-.048-3.129-.568-4.344-1.544-2.918-2.338-3.933-6.478-3.415-10.195.639-4.599 3.508-8.921 7.677-10.913 4.17-1.992 9.543-1.39 12.922 1.773 3.38 3.163 3.945 8.803 1.432 12.698-1.201 1.861-2.666 3.228-4.037 4.966-.06.077-.119.155-.176.233.62-1.609-1.791-2.936-2.684-1.309-.011.022-.022.043-.033.065-.114-.123-.261-.233-.445-.323-.458-.222-.898-.361-1.411-.299-.283.034-.55.12-.78.255-.676.085-1.352.178-2.029.262-.964.12-1.706.865-1.444 1.907.239.952 1.038 1.512 1.952 1.711.451.098 1.934-.152 1.953-.136.207 1.663-2.835 1.557-2.929 2.51-.049.494.445.789.175 1.471-.233.593-2.471.84-2.89.978-.864.282-1.027.536-1.474 1.382-.946 1.786.72 4.696 2.309 5.557.497.269 1.006.249 1.422.027.557.523 1.529.416 2.078-.075.055-.048.104-.099.151-.152.119.114.252.217.403.303 1.116.63 2.332.011 2.97-.982.641-1 .702-2.077.427-3.205-.013-.05-.024-.102-.036-.156.138.254.264.515.38.78.289.663.916.846 1.503.711l.084 3.737-12.06-.789v-4.309"/>
    <path fill="#EDEDED" d="M909.1185 269.7739c2.341-4.001 1.948-9.534-1.432-12.697-3.379-3.163-8.752-3.766-12.922-1.774-4.168 1.992-7.038 6.315-7.677 10.913-.518 3.717.507 7.844 3.415 10.196 6.659 5.386 16.841-3.604 18.616-6.638"/>
    <path fill="#8DA1B2" d="M909.2767 264.0405c1.755-1.808 3.604-3.676 5.988-4.471 2.384-.794 5.454-.122 6.566 2.143.94 1.916.197 4.271-1.037 6.011-1.235 1.739-2.918 3.116-4.162 4.848-.937 1.307-1.568 3.221-.52 4.439 1.014 1.177 2.866.902 4.369.526-1.941 1.434-4.72 1.612-6.828.44-2.107-1.173-3.433-3.636-3.257-6.052.176-2.416 1.845-4.659 4.1-5.511-1.596-.114-3.191-.229-4.786-.344"/>
    <path fill="#8DA1B2" d="M899.8636 261.6118c.369 2.825 1.811 6.692 5.706 6.281l.052.019c-1.186 1.334-2.558 5.774-2.064 8.846l.097.601s.434-1.771 2.358-3.691c1.925-1.919 4.049-3.945 4.643-6.734.738-3.464-.207-5.849-.947-7.126-.741-1.276-9.845 1.445-9.845 1.445"/>
    <path fill="#97CDF0" d="M888.0892 258.9116c-.011-.082-.004-.116.147-2.331.186-2.731.178-2.631.19-2.805.128-1.922.049-3.514 1.693-5.206 1.111-1.142 3.02-1.507 4.597-1.692 2.349-.277 4.491-1.333 7.216-.863 1.87.323 4.394.881 6.058 3.065 1.62 2.126 2.56 2.98 2.292 6.353-.256 3.241.061 3.771-.226 4.51-.624 1.61-21.546 2.219-21.967-1.031"/>
    <path fill="#75BFE8" d="M901.8226 245.981c0 .463-6.125-1.151-6.335 5.791-.099 3.236-.196 5.007-.177 9.926l-5.182-.914c-.139-2.611-.344-4.744-.403-7.571-.049-2.402-.824-5.917 1.658-7.068 2.458-1.14 5.701-.749 7.745-.458l2.694.294z"/>
    <path fill="#75BFE8" d="M888.1908 259.2095s-2.068 1.69-5.177 2.914c9.388 1.028 14.627 1.071 23.784-1.251-10.913.416-13.368.131-13.368.131s-3.364-.333-5.239-1.794"/>
    <path fill="#97CDF0" d="M902.3383 421.937c-1.107-3.517-2.395-50.616-4.378-53.328-1.668-2.279-3.531 47.592-4.849 53.328h-13.305c-1.095-3.341 1.069-60.977 1.415-63.249.366-2.41 33.446-1.4 33.446-1.4s2.908 55.615-1.31 64.649h-11.019z"/>
    <path fill="#F6F6F6" d="M883.0902 294.5757c-4.51 4.101-6.254 11.296-7.214 15.083-1.045 4.129-2.765 9.527-3.639 11.318-.639 1.309-3.586 3.475-5.487 5.086-3.584 3.037-7.107 5.839-11.085 8.454-.758.497-1.605.903-2.156 1.623-.551.722-.761 1.794-.237 2.537.428.609-.02 1.491.718 1.418.74-.073 2.69-1.048 3.36-1.372 5.395-2.609 10.791-5.217 16.186-7.826 2.374-1.147 4.772-2.31 6.818-3.979 2.046-1.669 3.351-4.022 4.232-6.519 1.724-4.886 1.258-25.636 1.258-25.636l-2.754-.187z"/>
    <path fill="#97CDF0" d="M878.8754 322.9819c-1.669-1.729-3.666-3.082-5.7-4.357.878-2.466 1.959-6.036 2.701-8.966.96-3.787 2.704-10.983 7.214-15.083l2.754.186s.466 20.751-1.258 25.637c-.757 2.146-1.83 4.186-3.416 5.776-.586-1.152-1.36-2.224-2.295-3.193"/>
    <path fill="#57B4E5" d="M880.6595 324.4194s-2.1-2.517-3.663-3.55c-1.564-1.034-2.993-1.978-2.993-1.978s-.674-.866-1.052-.253-.601 1.196-.601 1.646c0 .45 6.42 8.062 7.237 8.314.815.252 2.278-.842 2.501-1.567.223-.725-1.429-2.612-1.429-2.612"/>
    <path fill="#75BFE8" d="M880.6595 324.4194s-2.1-2.517-3.663-3.55c-1.564-1.034-2.993-1.978-2.993-1.978s-.674-.866-1.052-.253-.601 1.196-.601 1.646c0 .45 6.42 8.062 7.237 8.314.815.252 2.278-.842 2.501-1.567.223-.725-1.429-2.612-1.429-2.612M913.975 352.8228c.032.933.489 1.788.806 2.666.315.878.473 1.92-.042 2.696-.494.742-1.441 1.005-2.307 1.202-9.695 2.213-19.978 3.191-29.485.265-.637-.195-1.303-.432-1.726-.949-.64-.782-.515-1.942-.184-2.898.33-.956.834-1.883.855-2.895l1.47-.087 29.662-.867.951.867z"/>
    <path fill="#D8EDFB" d="M892.5111 356.1362c.123.633-.146 4.521-.013 5.151l-2.191-.108c-.143-.698.058-4.477-.073-5.177.74.096 1.532.078 2.277.134"/>
    <path fill="#75BFE8" d="M894.2162 282.355c-1.221-.481-2.512-1.513-2.413-1.959.149-.677 3.037-.875 3.037-.875s.04.258-.096.881c-.141.649-.528 1.953-.528 1.953"/>
    <path fill="#F7F7F7" d="M855.6654 334.5171c.13-.086.257-.173.386-.259 1.774 1.131 3.873 1.821 5.933 2.224l-4.634 2.241c-.67.323-2.621 1.299-3.36 1.371-.738.073-.29-.808-.719-1.418-.523-.742-.313-1.814.238-2.536.551-.721 1.399-1.126 2.156-1.623"/>
    <path fill="#B6DFF7" d="M905.7035 284.6519s2.044 1.935 8.656 7.556c6.613 5.621 4.954 9.067 4.657 14.334-.297 5.265 0 12.927-.093 19.828-.093 6.899 1.117 13.242.661 18.863-.457 5.62-3.361 9.087-4.293 9.836-.932.75-1.117.844-4.843 1.78-3.725.937-10.431 1.499-14.528 1.781-4.099.281-10.896-.563-13.026-1.499-2.128-.937-2.315-1.274-2.315-1.274-.105-.581-.229-1.159-.356-1.735-.557-2.501-.997-4.965-1.128-7.531-.138-2.673-.101-5.356-.11-8.033-.019-5.426-.038-10.851-.057-16.277-.018-5.287-.203-10.608.085-15.89.255-4.685 1.063-9.448 3.413-13.566 1.98-3.471 5.025-6.425 8.872-7.681.952-.311 1.728-.492 1.728-.492l2.469 2.695.921.717.906-.056 1.353-.382 5.955-4.042 1.073 1.068z"/>
    <path fill="#B6DFF7" d="M891.7904 280.5513c-.318 1.416-.495 4.481-.312 4.728.967 1.289 4.123 3.787 4.66 2.75.034-1.966-.143-3.177.14-5.123-1.986-.292-4.529-2.224-4.475-2.51M905.8842 283.9321c.014.224.025.458-.065.663-.15.339-.528.5-.87.638-1.781.717-3.492 1.612-5.098 2.668-.359.235-.845.476-1.176.205-.239-.195-.249-.553-.237-.863.045-1.198.397-4.529.397-4.529s4.39-1.259 6.324-1.435c.204-.018.446-.063.522-.252 0 0 .143 1.911.203 2.905"/>
    <path fill="#F6F6F6" d="M856.6429 339.4409c-.281-1.431-.126-1.845-.092-3.303.033-1.457-.385-3.107-1.659-3.801-.995-.543-2.211-.344-3.323-.129-1.559.299-3.32.743-4.067 2.151-.497.937-.401 2.069-.267 3.124.19 1.505.437 3.028 1.091 4.396.653 1.368 1.77 2.578 3.214 3.013 1.471.444 3.173-.016 4.225-1.14 1.053-1.125 1.406-2.862.878-4.311"/>
    <path fill="#FCBC5E" d="M852.014 345.1978c-.005.729.002 1.472.23 2.162.229.691.719 1.333 1.408 1.558.744.243 1.602-.063 2.119-.654.517-.59.717-1.418.649-2.202-.066-.784-.379-1.53-.781-2.205"/>
    <path fill="#A5BACE" d="M850.2006 332.4331c.341-.324.082-.957-.351-1.139-.433-.181-.925-.057-1.378.068-.608.169-1.216.338-1.825.506-.154.043-.332.082-.463-.01-.11-.078-.147-.222-.176-.354-.161-.727-.932-3.605-1.093-4.333-.089-.4-.178-.823-.06-1.216.117-.393.518-.734.913-.63.496.129.613.783.574 1.297-.039.514.51 3.275.905 3.605.378.315.941.174 1.407.016.571-.195 1.144-.389 1.715-.583.273-.093.608-.174.821.02.132.121.17.311.201.487.117.66.234 1.318.35 1.977"/>
    <path fill="#D8EDFB" d="M891.7748 358.4966c-.765-.104-1.525-.076-2.298-.129-3.726-23.405-1.342-47.969 6.924-70.171l.016-.133c.301-.018.603-.037.906-.055-7.61 22.55-9.512 47.014-5.548 70.488"/>
    <path fill="#FCBC5E" d="M896.9056 300.6694c-.3.105-.417 1.194-.851 2.08-.436.889-.559 2.124-.559 2.124s5.919 2.883 6.24 2.462c.153-.202.155-1.338.62-2.337.511-1.096.819-2.473.819-2.473s-5.641-2.077-6.269-1.856"/>
    <path fill="#E9F2F9" d="M894.3314 296.7153c.369-.416.479-.308 1.029-.369.146-.013.296.015.42.09.343.206.493.633.515 1.033.035.682-.335 1.448-.999 1.586-.542.113-1.119-.263-1.309-.786-.19-.524-.025-1.139.344-1.554m-1.053 1.487c.042.632.169 1.326.665 1.715.658.517 1.688.212 2.22-.434.531-.648.685-1.522.778-2.356.247-2.201.197-4.516-.763-6.51l-.701-.152c-1.585 2.223-2.376 5.007-2.199 7.737"/>
    <path fill="#75BFE8" d="M903.5326 280.2241c.693.098 1.757.271 1.924.35.168.079.293.28.224.453-.076.189-.319.224-.521.252-.823.112-1.208.18-1.208.18l-.338-1.006-.081-.229z"/>
    <path fill="#BED0E5" d="M853.3363 323.5337l-13.196-18.768c-.5-.819-.715-1.636-.89-1.602-.06.012-.561-.177-.622.068-.02.081.406.479.385.591l-2.953 23.922c-.171.889-.169 1.595.427 1.974.372.235.992.159 1.27.091l14.701-3.584c1.028-.251 1.495-1.682.878-2.692"/>
    <path fill="#D0DDEF" d="M852.808 323.4907l-13.195-18.767c-.73-1.193-.852-2.381-1.128-.944l-2.953 23.923c-.234 1.218.669 2.315 1.697 2.064l14.701-3.584c1.028-.251 1.495-1.681.878-2.692"/>
    <path fill="#BED0E5" d="M845.5258 327.9409c.104-.443-.056-.907-.213-1.327-.357-.953-1.259-5.461-1.732-6.34-.048-.09-.101-.183-.18-.232-.079-.051-.192-.043-.243.045-.041.073-.028.169-.014.254.195 1.144.934 5.836 1.129 6.979.037.219.086.46.241.585.15.121.349.095.526.046.175-.048.359-.114.534-.056"/>
    <path fill="#DADADA" d="M885.4672 339.8989s-4.596.472-5.921 1.497c-1.326 1.025-3.87 4.413-3.78 4.838.09.425.465 1.009 1.557 1.228 1.093.22 2.103.663 2.103.663s.3-.409.17-1.111c-.129-.702-.907-1.024-.907-1.024.208-.354 1.269-1.929 1.269-1.929s.559 1.511 2.82 1.357c2.996-.206 2.689-5.519 2.689-5.519"/>
    <path fill="#97CDF0" d="M904.9681 328.5728c.049-.021 3.389-22.479 6.689-31.177.431-1.135 2.392-2.996 4.531-2.166 3.878 1.506 3.23 6.835 3.377 9.258.336 5.547-.176 10.271-.557 15.815-.286 4.179-1.545 10.02-3.837 13.325-.663-.489-9.807-4.186-10.203-5.055"/>
    <path fill="#FFF" d="M865.5853 360.9692l.141-2.458c.187-3.267 1.628-6.265 4.056-8.44 2.429-2.177 5.555-3.273 8.802-3.083 6.703.389 11.842 6.192 11.455 12.934l-.137 2.376c-7.215-1.214-16.355-1.62-24.317-1.329m25.378 1.516l.143-2.5c.421-7.335-5.168-13.648-12.46-14.071-3.534-.206-6.933.986-9.575 3.353-2.641 2.367-4.209 5.628-4.413 9.181l-.147 2.561c-.619.028-1.23.06-1.831.097.564 4.628 1.714 20.702 3.411 25.041.307.787.652 1.593 1.277 2.159.879.794 2.137.964 3.314 1.072 5.133.475 10.31.48 15.446.013.784-.071 1.6-.164 2.265-.588 1.108-.707 1.504-2.116 1.814-3.398.886-3.675 1.773-18.867 2.658-22.541-.612-.134-1.251-.259-1.902-.379"/>
    <path fill="#EDEDED" d="M876.6488 347.063c.585-2.055 2.326-5.421 4.06-6.587 1.636-1.1 7.851-2.372 9.345-2.967 1.388-.552 11.866-5.672 15.238-8.022 2.842.305 1.94 2.247 4.794 2.338 1.787.056 3.568.201 5.353.286-.058.372-.152.723-.291 1.049-2.295 5.417-16.638 8.672-26.847 10.091-.516.072-1.04.158-1.561.204-.003.001-.004.002-.007.003-.831.302-1.355.401-1.369 2.164-.014 1.762-1.159 2.513-1.159 2.513s-.547.863-1.323.751c-.63-.091-.394-.207-.911-.329-.243-.057-.239.315-.926.27-.323-.022-.569-.202-.922-.16-.353.042-.368.377-.819.342-.452-.036-.653-.222-.969-.144-.468.116-.678.493-1.29.499-.313.003-.98-.246-.396-2.301"/>
    <path fill="#75BFE8" d="M904.3285 328.2017c.012-.045.09-.326.723-.407l.042.243c1.195.325 3.826 1.98 5.341 2.377 1.372.359 4.396 1.123 5.811 1.711.05.02-.002-.425.044-.403.408.183.714.904.714.904-.082.661-.158 1.14-.375 1.245-.218.103.254.916-.396 1.101-.648.185-4.557-.678-6.513-1.463-1.955-.786-5.702-3.532-5.785-4.164-.075-.571.318-.84.394-1.144"/>
    <path fill="#97CDF0" d="M904.2719 328.2505c.456-.592 4.329 1.999 6.176 2.481 1.846.484 6.649 1.552 6.567 2.213-.081.66-.157 1.14-.375 1.244-.217.104.254.916-.394 1.102-.65.186-4.559-.679-6.514-1.464-1.955-.785-5.697-3.532-5.785-4.164-.087-.633.064-1.073.325-1.412"/>
    <path fill="#FFF" d="M1105.599 381.5073c.351-1.999 3.067-1.257 3.241.441.825 8.065.521 31.897 1.022 39.989.007.108.002-.097-.012 0h12.924l3.688-67.889-15.77 1.993-22.354-1.993-3.317 67.889h17.404c.061-8.378 1.723-32.168 3.174-40.43"/>
    <path fill="#97CDF0" d="M1105.599 381.5073c.351-1.999 3.067-1.257 3.241.441.825 8.065.521 31.897 1.022 39.989.007.108.002-.097-.012 0h12.924l3.688-67.889-15.77 1.993-22.354-1.993-3.317 67.889h17.404c.061-8.378 1.723-32.168 3.174-40.43"/>
    <path fill="#DAE8F7" d="M1082.2299 341.3872c3.258 2.447 16.293 10.253 19.063 11.237 1.095.39 1.475.185 1.475.185s1.221-.286 2.115-1.556c.896-1.269.174-2.192.174-2.192s-8.272-11.357-16.564-16.344c-1.219-.733-1.836-1.054-1.669-4.195.116-2.174-2.695-2.576-5.661-2.972-1.232-.164-4.55-.472-5.921-.223-.583.106-.567 8.137-.567 8.137.144 3.574 4.999 6.002 7.555 7.923"/>
    <path fill="#B6DFF7" d="M1144.7465 313.5317l-7.489-10.75c-.141-.193-.269-.368-.387-.531-1.991-2.893-7.89-11.093-12.192-13.236-1.973-.981-.207-.425-7.024-2.877-6.816-2.45-16.387-1.718-19.782-.17-3.395 1.547-15.87 6.28-18.838 14.087-2.968 7.807-4.642 14.313-4.565 28.014 0 0 12.993 3.144 13.002 2.937.118-2.779.206-18.906.418-15.947.213 2.993 1.264 18.597 1.264 18.597s.305 1.761.457 5.358c.153 3.598-.6 10.371-.6 10.371s7.838 3.827 18.87 3.596c11.033-.229 17.182-2.642 17.182-2.642s1.958.336 1.861-3.214c-.066-2.381-.859-12.209-.981-15.396 0 0 1.209-20.661 1.265-20.541-.023-.4.95 1.875 3.659 5.825.086.124.171.239.256.348l4.659 7.038 8.965-10.867z"/>
    <path fill="#57B4E5" d="M1101.6566 285.562c.269.331.444.716.5 1.108.705.324 1.396.675 2.078 1.046.38.207.758.419 1.139.624.136.075.274.144.41.218.029.016.052.028.072.039.272.124.529.318.738.555 1.391-.527 2.866-1.176 4.051-2.092.721-.557 1.508-1.39 2.347-2.079-4.211-.665-8.679-.505-11.883.074.202.145.388.311.548.507"/>
    <path fill="#97CDF0" d="M1101.2982 351.4292c-2.387-.802-4.664-1.904-6.451-3.729-1.678-1.713-2.765-3.866-3.498-6.134-.899-2.776-1.29-5.758-1.549-8.655-.128-1.43-.19-2.868-.179-4.304-.279-2.314-.532-4.63-.819-6.939-.276-2.229-.591-4.447-.525-6.698.019-.658-.011-1.214-.166-1.765-.51 1.229-.939 2.493-1.221 3.771v.634c0 1.778.133 3.567-.069 5.34-.283 2.494-1.174 5.112-3.78 5.989-1.347.454-2.823.237-4.196.039-.526-.076-1.049-.171-1.569-.276-.017.009-.035.019-.051.028 3.814.91 10.24 2.421 10.246 2.275.118-2.778.206-18.905.418-15.946.214 2.992 1.264 18.597 1.264 18.597s.305 1.76.457 5.358c.153 3.598-.6 10.37-.6 10.37s7.722 3.77 18.625 3.601c-.182-.144-.36-.291-.536-.443-1.947-.09-3.875-.467-5.801-1.113"/>
    <path fill="#F6F6F6" d="M1104.2386 289.5747s-2.922-1.776-3.527-2.129c-.607-.353-.521-1.225-.521-1.225l.201-5.144 14.201-2.088V285.3357s-.353.984-1.43 1.776c-1.078.791-2.461 1.699-3.551 2.085-1.09.387-5.373.378-5.373.378"/>
    <path fill="#EDEDED" d="M1100.392 281.0767l-.087 2.226c.601.654 1.303 1.208 2.151 1.594 1.638.746 3.6 1 4.69 2.611.717 1.059 1.316 1.599 2.406 1.213 1.09-.386 2.473-.793 3.55-1.584 1.078-.792 1.491-1.133 1.491-1.133v-7.015l-14.201 2.088z"/>
    <path fill="#F6F6F6" d="M1098.0697 264.5337c-.097 1.479.388 4.475.291 5.953.177-.529.356-1.073.333-1.632-.023-.557-.231-.876-.544-1.028-.479-.233-.896.047-1.16.508-.298.517-.277 1.48-.222 2.076.127 1.356.15 1.252.83 3.396 0 0 .014 2.67.31 3.668.624 2.109 2.023 3.915 3.661 5.373 1.328 1.183 2.886 2.193 4.637 2.476 2.885.468 5.82-1.181 7.541-3.557 1.72-2.376 2.401-5.36 2.663-8.288.261-2.927.144-5.882.466-8.804"/>
    <path fill="#F6F6F6" d="M1115.7845 268.0142c.337-.429 1.024-.462 1.471-.151.447.31.663.88.664 1.426.001.546-.186 1.075-.407 1.574-.655 1.469-1.089 2.6-2.052 3.888"/>
    <path fill="#76C0E8" d="M1087.8822 349.1782l-.799 5.984s15.415 4.937 21.745 4.535c6.33-.402 17.115-3.33 17.115-3.33v-6.085s-12.187 3.122-20.074 2.709c-7.886-.412-17.987-3.813-17.987-3.813"/>
    <path fill="#8DA1B2" d="M1112.2494 267.2798c2.739-1.127 1.383-4.081 1.383-4.083.872-.579 1.471-.89 1.979-.237.791 1.016.779 2.265.596 3.478-.009.061-.266 3.109-.455 4.378.278.186.376-3.221 1.062-3.129.134.018.061-.192.057-.329-.017-.57-.069-.083-.014-1.158.019-.36.156-.188.156-2.218 0-5.288-4.348-9.575-9.711-9.575-5.081 0-9.247 3.848-9.672 8.749-.129.548.445 1.232.445 1.232-.086 2.106-.014 1.281-.067 3.385 1.095.382 1.084 3.474 1.084 3.474.28 0-.149-5.367-.277-6.374-.47-3.706 3.362-2.485 3.722-1.789 10.123 1.767 9.712 4.196 9.712 4.196"/>
    <path fill="#D8EDFB" d="M1116.9418 257.7183c-.674-4.549-4.313-5.77-6.201-6.344-1.889-.574-7.155-.54-9.74.951-4.765 2.749-3.754 8.651-3.574 12.3 0 0 10.157-2.749 19.743-.845 0 0-.112-5.276-.228-6.062"/>
    <path fill="#B6DFF7" d="M1097.4271 264.6255c2.79-2.306 6.554-2.326 10.235-2.281 3.296.04 6.536.043 9.507 1.435.348.163 1.123.921 1.454 1.199.195.164.685.762.526.955-.108.131-.942-.088-1.11-.133-4.461-1.196-9.205-1.398-13.753-.583-2.313.414-4.261 1.443-6.456.606-1.618-.616-.403-1.198-.403-1.198"/>
    <path fill="#CDE8FB" d="M1108.0844 251.0757c0 .118-.315.214-.705.214-.39 0-.706-.096-.706-.214 0-.117.316-.213.706-.213.39 0 .705.096.705.213"/>
    <path fill="#97CDF0" d="M1100.223 285.4038s-.596 1.513.488 2.515c2.2 2.032 6.377 2.811 11.232.84 1.337-.542 3.077-1.792 3.091-2.259.011-.363-.441-1.164-.441-1.164s0 .857-3.34 2.402c-5.09 2.353-8.162.588-9.034.042-1.89-1.183-1.996-2.376-1.996-2.376"/>
    <path fill="#FCBC5E" d="M1111.2943 305.9067s1.095-.258 4.864-.425c3.769-.167 5.429-.237 5.429-.237v9.183l-4.712 1.937-5.223-1.823-.358-8.635z"/>
    <path fill="#DAE8F6" d="M1106.5941 361.9556l-4.519-11.281-7.453 9.577.171.024-2.177 15.471 11.631 1.656 2.177-15.471z"/>
    <path fill="#C6D4E4" d="M1142.9037 367.1245l-36.479-5.193-2.177 15.471 36.479 5.193 2.179-15.49z"/>
    <path fill="#DADADA" d="M1108.722 345.9136c-.994-.142-1.917.557-2.058 1.557l-.795 5.649c-.14 1 .554 1.928 1.548 2.069l26.134 3.721c.993.142 1.917-.557 2.058-1.557l.794-5.649c.14-1-.553-1.928-1.547-2.069l-26.134-3.721zm24.68 14.06l-26.134-3.721c-1.577-.225-2.679-1.697-2.455-3.283l.794-5.65c.223-1.587 1.687-2.694 3.264-2.469l26.134 3.72c1.577.224 2.679 1.697 2.455 3.283l-.795 5.65c-.222 1.586-1.687 2.694-3.263 2.47z"/>
    <path fill="#AEC1D3" d="M1106.597 361.937l-4.521-11.263 35.554 5.062 5.276 11.37z"/>
    <path fill="#F6F6F6" d="M1148.9554 320.8091c-.274-.589-3.347-6.564-4.829-7.89-2.096-2.286-3.51-5.506-6.309-7.125-1.893 2.39-5.879 6.446-8.214 8.401 1.566 2.115 2.973 4.347 4.207 6.674.623 1.172 2.158 2.58 2.43 3.88.187.894-.691 2.143-.938 2.53-2.853 3.065-8.165 9.5-11.561 13.486-.471.335-.981.6-1.542.746-1.16.305-2.421.077-3.556.466-1.161.396-3.004 2.789-2.733 3.585.035.102.148.231.298.367l2.155.316c.49-.81-.247-1.227-.021-1.588.376.213.485.735.352 1.148-.104.32-.32.587-.562.825l-.002.003-.005.003c-.067.066-.136.13-.206.193-.009.007-.061.038-.145.085h-.001l-.002.002c-.021.012-.045.026-.07.039.001 0 .002 0 .002-.001l-.002.001c-.053.03-.115.064-.185.102l-.003.002c-.877.478-2.937 1.548-3.879 1.857-1.185.39-.418 1.625-.311 1.866.273.612.813.649 1.445.477-.22.436.379 1.443.5 1.545.285.239.704.257 1.173.16.113.199.786 1.304 1.807 1.018.234-.067.548-.237.89-.46-.02.24.568.618 1.247.507 1.095-.18 4.324-3.019 4.883-3.985 1.148-1.985.819-2.381 1.344-3.212.319-.505.698-1.443 1.182-1.792 1.147-.827 16.125-11.366 19.316-16.959.764-1.337 2.414-2.499 2.743-4.084.229-1.101-.422-2.168-.898-3.188"/>
    <path fill="#B6DFF7" d="M1136.8705 302.2505c-.098-.142-.207-.3-.323-.466-1.859 2.157-3.653 4.374-5.272 6.72-.921 1.333-1.79 2.702-2.599 4.106-.097.167-.189.342-.28.523.577.98 1.383 2.295 2.47 3.88.086.124.171.238.256.347l4.659 7.038 8.965-10.867-7.489-10.75c-.141-.193-.269-.368-.387-.531"/>
    <path fill="#FFF" d="M1086.847 278.3042s5.393-2.456 4.47-8.173c-.407-2.517-4.262-6.562-5.48-9.162-1.218-2.601-.98-5.73.586-11.554 1.566-5.822 1.892-7.094.341-9.246-1.322-1.835-3.133-2.158-3.133-2.158s1.616-.072-3.601-.423c-5.219-.349-1.818.162-1.818.162s-12.452 4.535-11.841 19.574c.613 15.037 3.196 22.953 9.281 23.915 6.085.961 11.195-2.935 11.195-2.935"/>
    <path fill="#AEC1D3" d="M1086.847 278.3042s5.393-2.456 4.47-8.173c-.407-2.517-4.262-6.562-5.48-9.162-1.218-2.601-.98-5.73.586-11.554 1.566-5.822 1.892-7.094.341-9.246-1.322-1.835-3.133-2.158-3.133-2.158s1.616-.072-3.601-.423c-5.219-.349-1.818.162-1.818.162s-12.452 4.535-11.841 19.574c.613 15.037 3.196 22.953 9.281 23.915 6.085.961 11.195-2.935 11.195-2.935"/>
    <mask id="d" fill="#fff">
      <use xlink:href="#c"/>
    </mask>
    <path fill="#FFF" d="M1051.732 274.459h19.093v-19.207h-19.093z" mask="url(#d)"/>
    <path fill="#AFC4D8" d="M1051.732 274.459h19.093v-19.207h-19.093z" mask="url(#d)"/>
    <path fill="#FFF" d="M1081.6742 269.7466s6.815 8.526 10.886 18.198c7.136 16.956 7.527 30.127 10.339 31.751 2.81 1.623 8.271 1.778 17.908 2.666 9.637.889 16.13-.57 16.13-.57l1.508 5.331s-28.999 13.576-43.479 6.456c-3.609-1.774-3.811-3.029-4.745-5.309-4.636-11.306-10.141-23.627-16.323-41.299-8.358-23.892 7.776-17.224 7.776-17.224M1148.059 316.7427s2.906-1.189 3.815 0c.91 1.189 1.12 2.596 1.888 5.27.77 2.673 1.26 4.573.42 5.769-.839 1.195-3.077 2.11-4.476 2.11s-2.028-.844-2.168-1.688c-.14-.845-.559-.352-1.399-1.056-.839-.703.35-2.462.35-2.462s-.7.563-1.119-.07c-.419-.634.158-1.89.7-2.674l.541-.784" mask="url(#d)"/>
    <path fill="#FFF" d="M1144.1312 321.2661c.629-.492 2.497-1.153 2.497-1.153s-.644 1.995 2.099 3.799c1.818 1.196 2.867-.282 2.867-.282s-.979-3.025-2.028-5.065c-1.049-2.04-1.819-2.111-3.427-2.111-1.609 0-3.567 1.055-6.435 2.251-2.867 1.197-2.657 2.604-2.657 2.604l1.398 4.502c1.05 1.126 4.963 2.747 5.593 3.1l.093-7.645z" mask="url(#d)"/>
    <path fill="#56B3E4" d="M1081.6742 269.7466s6.815 8.526 10.886 18.198c7.136 16.956 7.527 30.127 10.339 31.751 2.81 1.623 8.271 1.778 17.908 2.666 9.637.889 16.13-.57 16.13-.57l1.508 5.331s-28.999 13.576-43.479 6.456c-3.609-1.774-3.811-3.029-4.745-5.309-4.636-11.306-10.141-23.627-16.323-41.299-8.358-23.892 7.776-17.224 7.776-17.224" mask="url(#d)"/>
    <path fill="#76C0E8" d="M1148.059 316.7427s2.906-1.189 3.815 0c.91 1.189 1.12 2.596 1.888 5.27.77 2.673 1.26 4.573.42 5.769-.839 1.195-3.077 2.11-4.476 2.11s-2.028-.844-2.168-1.688c-.14-.845-.559-.352-1.399-1.056-.839-.703.35-2.462.35-2.462s-.7.563-1.119-.07c-.419-.634.158-1.89.7-2.674l.541-.784M1088.5277 345.2231c.963-2.905 1.069-5.703 1.069-7.317 0-1.615 1.177-15.173 1.926-34.297.749-19.124-7.595-31.023-8.771-32.744-1.177-1.722-5.879-4.736-5.879-4.736l-4.972 2.366-4.303.134-1.416-2.204s-3.394-.645-6.415-.296l-2.245 1.183-3.264 1.859s-9.163 5.562-10.994 7.892c-3.3 4.203-7.431 130.31-3.24 144.874h20.593s.968.282.848-5.597c-.169-8.157 1.752-37.699 4.885-37.699 3.031 0 4.729 20.52 3.822 43.296h17.392c.915-6.062 2.297-46.215 2.248-48.735-.107-5.488-1.604-10.761-1.604-10.761l-1.663-6.555s.165-.87.914-3.022c.749-2.153.106-4.735 1.069-7.641" mask="url(#d)"/>
    <path fill="#FFF" d="M1060.3099 260.4673s4.99 3.404 8.457 3.57c4.786.229 7.726-2.353 8.018-2.566.441-.321-3.512-1.41-8.178-1.41-4.665 0-8.297-.115-8.297.406" mask="url(#d)"/>
    <path fill="#FFF" d="M1061.2904 266.5806s2.561 2.086 7.273 2.311c7.322.348 5.868-1.236 5.868-1.236v-9.325s6.178-1.724 7.985-8.109c1.806-6.386.964-12.356.964-12.356s-.294-12.903-13.918-12.903c-13.624 0-12.875 11.259-12.875 12.504 0 3.763-.829 12.384 2.779 15.897 2.189 2.132 1.924 13.217 1.924 13.217" mask="url(#d)"/>
    <path fill="#FFF" d="M1066.35 239.5337l-7.945-1.397 2.553 20.527.207 2.365s2.157-2.567 2.05-7.891c-.107-5.323-1.925-8.764-1.925-8.764s3.033.806 4.51-.054c1.478-.86 1.856-4.445 1.856-4.445l-1.306-.341M1133.9076 323.9458c.015.407.041.814.078 1.22.016.175.033.348.054.523-.028-.176-.025-.157.009.056.154 1.053.366 2.042.635 2.99 2.352-.952 5.096-1.517 6.253-1.317 1.157.198-3.551-7.09-3.551-7.09s-1.532 1.707-3.467 1.933c-.028.562-.031 1.124-.011 1.685" mask="url(#d)"/>
    <path fill="#B7DFF8" d="M1080.6615 359.4819c-.092-.557-.23-1.106-.562-1.628-.168.594-.145 1.161-.075 1.72.091.557.229 1.107.562 1.629.171-.595.147-1.161.075-1.721M1076.5658 358.6431c-.232.83-.247 1.666-.192 2.493.074.825.219 1.648.58 2.431v.001c.144-.851.116-1.666.06-2.483-.074-.815-.175-1.625-.448-2.442M1056.7777 356.478c-.217.825-.241 1.625-.217 2.426.044.8.137 1.595.427 2.398.219-.803.242-1.617.216-2.426-.045-.808-.139-1.616-.426-2.398M1051.722 355.6899c-.277.843-.359 1.672-.394 2.505-.014.833.02 1.666.249 2.522.278-.818.361-1.662.394-2.504.014-.842-.02-1.689-.249-2.523M1048.433 356.2798c-.127.373-.187.729-.234 1.074l-.486 2.229c.299-.109.558-.338.723-.615.175-.276.264-.59.312-.899.075-.623-.018-1.231-.315-1.789" mask="url(#d)"/>
    <path fill="#FFF" d="M1069.056 258.5688s1.881.196 3.46.034c.988-.101 1.915-.272 1.915-.272l.036 10.266-3.394 1.157s-.337-1.644-.402-3.066c-.053-1.178-.146-2.406.241-2.756.262-.236.775-.282 1.47-.51.961-.316 1.871-.686 1.871-.686s-.131-1.74-.808-2.269c-1.95-1.522-4.389-1.898-4.389-1.898" mask="url(#d)"/>
    <path fill="#FFF" d="M1076.7845 261.4712c-.424.568-4.06 2.209-5.135 2.296-1.219.098-.726 4.592-.726 4.592.042.775.149 1.394.149 1.394s2.343-.766 3.395-1.156c1.05-.39 2.405-1.53 2.405-1.53l-.088-5.596M1061.5219 267.354s2.282 1.292 4.351 1.579l2.068.286s.285-4.773 0-5.327c-.285-.554-3.066-1.058-4.707-1.775-1.641-.717-2.924-1.65-2.924-1.65l-.543 5.71 1.755 1.177zM1070.9838 273.1724c-.001-1.117-.003-2.235-.004-3.353-.649-.152-1.351-.063-1.941.247-1.496 11.667.822 23.435 2.026 35.136 1.146 11.118 1.282 22.372-.154 33.456-.603 4.653-1.48 9.264-2.225 13.895-.095.59-.185 1.208.007 1.773.193.566.769 1.046 1.348.917.696-.155.956-1 1.073-1.708.521-3.173.71-6.389.898-9.6.508-8.651 1.016-17.301 1.525-25.951.227-3.88.455-7.778.11-11.65-.328-3.677-1.169-7.287-1.642-10.948-.434-3.355-.558-6.741-.682-10.122-.132-3.6-.264-7.199-.395-10.798" mask="url(#d)"/>
    <path fill="#FFF" d="M1071.2484 288.4517c-.532.168-.987-.413-1.208-.929-.186-.432-.34-.901-.275-1.368.065-.467.409-.924.875-.974l-.081.322c.246-.158.514.166.628.436.104.243.207.486.31.729.133.313.269.638.264.978-.005.341-.19.704-.513.806m2.235-2.245c-.392-2.945-1.683-5.681-2.958-8.361l-.299.44c-.791.884-1.117 2.082-1.416 3.232-.413 1.592-.827 3.221-.694 4.86.132 1.639.914 3.32 2.359 4.091.321.171.68.295 1.041.259.322-.031.623-.188.875-.392 1.157-.933 1.289-2.652 1.092-4.129" mask="url(#d)"/>
    <g mask="url(#d)">
      <path fill="#1499D7" d="M1060.3099 260.4673s4.99 3.404 8.457 3.57c4.786.229 7.726-2.353 8.018-2.566.441-.321-3.512-1.41-8.178-1.41-4.665 0-8.297-.115-8.297.406"/>
      <path fill="#FFF" d="M1061.2904 266.5806s2.561 2.086 7.273 2.311c7.322.348 5.868-1.236 5.868-1.236v-9.325s6.178-1.724 7.985-8.109c1.806-6.386.964-12.356.964-12.356s-.294-12.903-13.918-12.903c-13.624 0-12.875 11.259-12.875 12.504 0 3.763-.829 12.384 2.779 15.897 2.189 2.132 1.924 13.217 1.924 13.217"/>
      <path fill="#DADADA" d="M1066.35 239.5337l-7.945-1.397 2.553 20.527.207 2.365s2.157-2.567 2.05-7.891c-.107-5.323-1.925-8.764-1.925-8.764s3.033.806 4.51-.054c1.478-.86 1.856-4.445 1.856-4.445l-1.306-.341"/>
      <path fill="#FFF" d="M1133.9076 323.9458c.015.407.041.814.078 1.22.016.175.033.348.054.523-.028-.176-.025-.157.009.056.154 1.053.366 2.042.635 2.99 2.352-.952 5.096-1.517 6.253-1.317 1.157.198-3.551-7.09-3.551-7.09s-1.532 1.707-3.467 1.933c-.028.562-.031 1.124-.011 1.685"/>
      <path fill="#DADADA" d="M1069.056 258.5688s1.881.196 3.46.034c.988-.101 1.915-.272 1.915-.272l.036 10.266-3.394 1.157s-.337-1.644-.402-3.066c-.053-1.178-.146-2.406.241-2.756.262-.236.775-.282 1.47-.51.961-.316 1.871-.686 1.871-.686s-.131-1.74-.808-2.269c-1.95-1.522-4.389-1.898-4.389-1.898"/>
      <path fill="#57B4E5" d="M1076.7845 261.4712c-.424.568-4.06 2.209-5.135 2.296-1.219.098-.726 4.592-.726 4.592.042.775.149 1.394.149 1.394s2.343-.766 3.395-1.156c1.05-.39 2.405-1.53 2.405-1.53l-.088-5.596M1061.5219 267.354s2.282 1.292 4.351 1.579l2.068.286s.285-4.773 0-5.327c-.285-.554-3.066-1.058-4.707-1.775-1.641-.717-2.924-1.65-2.924-1.65l-.543 5.71 1.755 1.177z"/>
      <path fill="#B7DFF8" d="M1070.9838 273.1724c-.001-1.117-.003-2.235-.004-3.353-.649-.152-1.351-.063-1.941.247-1.496 11.667.822 23.435 2.026 35.136 1.146 11.118 1.282 22.372-.154 33.456-.603 4.653-1.48 9.264-2.225 13.895-.095.59-.185 1.208.007 1.773.193.566.769 1.046 1.348.917.696-.155.956-1 1.073-1.708.521-3.173.71-6.389.898-9.6.508-8.651 1.016-17.301 1.525-25.951.227-3.88.455-7.778.11-11.65-.328-3.677-1.169-7.287-1.642-10.948-.434-3.355-.558-6.741-.682-10.122-.132-3.6-.264-7.199-.395-10.798"/>
      <path fill="#CDE8FB" d="M1071.2484 288.4517c-.532.168-.987-.413-1.208-.929-.186-.432-.34-.901-.275-1.368.065-.467.409-.924.875-.974l-.081.322c.246-.158.514.166.628.436.104.243.207.486.31.729.133.313.269.638.264.978-.005.341-.19.704-.513.806m2.235-2.245c-.392-2.945-1.683-5.681-2.958-8.361l-.299.44c-.791.884-1.117 2.082-1.416 3.232-.413 1.592-.827 3.221-.694 4.86.132 1.639.914 3.32 2.359 4.091.321.171.68.295 1.041.259.322-.031.623-.188.875-.392 1.157-.933 1.289-2.652 1.092-4.129"/>
    </g>
    <path fill="#75BFE8" d="M1144.9818 330.73h2.033c.755 0 1.372-.617 1.372-1.372l.001-12.881c0-.755-.617-1.372-1.372-1.372h-2.034c-.754 0-1.372.617-1.372 1.372v12.881c0 .754.617 1.372 1.372 1.372" mask="url(#d)"/>
    <path fill="#FFF" d="M1143.1732 321.2661c.629-.492 2.497-1.153 2.497-1.153s-.644 1.995 2.099 3.799c1.818 1.196 2.867-.282 2.867-.282s-.979-3.025-2.028-5.065c-1.049-2.04-1.819-2.111-3.427-2.111-1.609 0-3.567 1.055-6.435 2.251-2.867 1.197-2.657 2.604-2.657 2.604l1.398 4.502c1.049 1.126 4.963 2.747 5.593 3.1l.093-7.645z" mask="url(#d)"/>
    <path fill="#AEC1D3" d="M1146.8334 308.7476l.007.619 1.78-.02-.007-.624 1.335-.019.008.627 1.78-.021-.007-.631 1.335-.019.007.635 1.782-.021-.008-.639 1.408-.02.007.643 1.781-.02-.008-.648 1.335-.019.008.652 1.78-.021-.007-.656 1.029-.015-.032 1.33-.571-.015-.049 1.779.577.017-.033 1.335-.581-.017-.05 1.78.587.017-.034 1.406-.591-.016-.049 1.78.597.016-.032 1.335-.603-.016-.048 1.78.608.017-.032 1.335-.613-.017-.05 1.78.619.017-.034 1.407-.623-.018-.05 1.781.63.017-.033 1.335-.634-.017-.049 1.78.641.018-.033 1.334-.645-.018-.05 1.78.652.019-.034 1.406-.656-.018-.048 1.706-14.931.278-.074-28.202z" mask="url(#d)"/>
    <path fill="#BED0E5" d="M904.3636 300.813c2.334-7.696 10.347-22.269 10.347-22.269 2.335-4.464 5.106-8.681 9.587-10.283 2.264-.809 4.509-.616 6.004.519 1.499 1.137 2.275 3.227 2.025 5.457-.227 2.022-1.176 3.83-2.048 5.365-2.416 4.253-5.358 8.241-8.204 12.099-1.472 1.995-2.502 4.082-3.499 6.1-.964 1.952-1.963 3.967-3.364 5.933.072.043.993 2.096 1.222 2.456 2.983 3.204 8.536 9.933 12.087 14.1.492.35 1.026.627 1.613.78 1.212.318 2.531.081 3.717.487 1.213.415 3.142 2.916 2.858 3.748-.036.108-.155.241-.312.384l-2.253.33c-.513-.847.258-1.283.022-1.661-.393.223-.507.769-.367 1.201.108.336.334.614.586.863l.003.002.004.004c.071.07.143.136.216.201.01.008.064.04.152.09l.003.002c.022.013.046.027.073.041.055.031.121.067.194.107l.003.002h.001c.916.499 3.069 1.618 4.055 1.942 1.238.406.436 1.698.325 1.949-.286.641-.85.679-1.512.499.231.456-.395 1.509-.522 1.616-.297.249-.735.268-1.227.167-.117.208-.822 1.364-1.889 1.064-.245-.069-.573-.248-.929-.481.02.251-.595.646-1.305.53-1.145-.188-4.52-3.156-5.104-4.165-1.202-2.076-.858-2.49-1.406-3.359-.334-.528-.762-1.467-1.236-1.874-21.521-18.439-21.323-18.874-21.257-19.136-.763-.882.266-4.589 1.337-4.81" mask="url(#d)"/>
    <path fill="#D0DDEF" d="M952.8636 343.6792s.194-.305 1.865-.427c1.671-.123 5.047-3.408 5.342-4.215.352-.961.064-1.429-.378-1.652-.147-.042-.3-.096-.451-.145-.497-.092-.997-.012-.997-.012l.137-.09c-.425.091-.808.331-1.176.568-.719.462-1.437.925-2.154 1.387-.469.302-.96.612-1.514.667-.554.055-1.185-.234-1.325-.775 2.939-1.449 4.314-5.009 7.12-6.705 1.193-.722 2.574-1.059 3.831-1.663 1.072-.514 2.043-1.216 3.003-1.92 1.323-.973 9.572-11.18 13.025-15.365 2.053-2.488 4.541-5.498 7.824-7.226l-9.006-12.151c-2.863-3.861-5.823-7.854-8.264-12.129-.965-1.69-1.891-3.533-2.121-5.547-.275-2.4.569-4.663 2.201-5.907 1.623-1.236 4.036-1.463 6.457-.603 4.809 1.706 10.751 10.626 10.751 10.626 5.084 8.945 8.887 18.559 11.304 28.573.158.658.398 1.653.044 2.615-.291.789-.914 1.385-1.754 1.68-.097.034-.198.063-.299.089-.12.282-.251.565-.401.849-2.319 4.4-6.461 7.242-10.467 9.99-.725.496-1.447.991-2.154 1.493-1.808 1.284-8.582 6.332-8.687 6.214-1.342 1.169-1.912 1.613-3.348 2.869-.318.279-.644.567-.844.942-.672 1.272-1.444 9.951-4.475 11.06-1.801.658-5.27 3.151-6.402 2.897-.883-.198-1.26-1.305-1.26-1.305s-2.319.562-2.389-.961c0 0-2.142.121-1.899-1.23.024-.138.177-.346.393-.58-.269-.036-1.026-.048-1.341-.125-1.812-.443-.191-1.786-.191-1.786" mask="url(#d)"/>
    <path fill="#DAE8F7" d="M921.681 296.6128c-2.917-2.067-5.706-4.316-8.359-6.723-1.382-1.254-2.733-2.549-4.069-3.857 4.43-10.076 9.031-23.577 22.402-23.705 3.786-.036-5.964 19.477-4.752 23.899-.133.06-2.691 4.984-5.222 10.386" mask="url(#d)"/>
    <path fill="#DAE8F7" d="M924.7162 348.4185c.114-5.854 1.711-3.218 1.711-3.218l.26-.231s-3.45-2.018-3.709-5.842c-.59-8.7 1.71-24.593 1.71-32.002 0-5.266 1.607-15.656 0-18.754-.031-.057-.059-.114-.088-.172-.386-5.292-1.366-10.525-1.515-15.844-.079-2.837-.071-5.476.754-8.197 19.658-11.14 28.012-9.382 43.664-3.831 7.012 2.487 7.867 2.787 8.163 10.55.66 15.79.171 26.414-2.115 36.86-.058 5.383-.18 10.472-.404 19.174-.212 8.169 3.276 17.765 3.13 19.489-.359 4.257.867 8.633 1.79 14.306h-55.877c.282-1.141.472-1.839.472-1.839s1.94-4.595 2.054-10.449" mask="url(#d)"/>
    <path fill="#DAE8F7" d="M976.9252 264.8325c2.217 2.746 8.001 11.514 13.414 20.105-3.92 3.346-8.074 6.465-12.56 8.948-1.799-2.408-3.342-4.434-4.308-5.591-3.608-4.323-7.9-9.275-8.21-15.281-.563-10.909 8.869-11.645 11.664-8.181" mask="url(#d)"/>
    <path fill="#BED0E5" d="M938.8129 240.5659c5.55-.868 11.016-2.054 16.445-3.402-.358 4.533-.757 9.255-.757 9.255s-.752 6.623-.658 8.515c.017.345.088.748.202 1.186 1.351.909 2.184 2.144 2.184 3.507 0 2.793-3.495 5.059-7.808 5.059-4.311 0-7.806-2.266-7.806-5.059 0-1.312.77-2.507 2.035-3.407.108-2.119-.28-3.637-.28-3.637s-6.536-1.994-7.441-3.326c-1.256-1.849-1.521-4.09-1.535-7.889 1.808-.256 3.614-.52 5.419-.802" mask="url(#d)"/>
    <path fill="#EDEDED" d="M953.1488 263.2983c1.366-1.289 1.809-3.12 1.485-4.939-.131-.738-.377-1.364-.38-2.092 1.228.893 1.975 2.069 1.975 3.359 0 1.926-1.66 3.6-4.103 4.454.369-.231.713-.489 1.023-.782" mask="url(#d)"/>
    <path fill="#99AABC" d="M942.3695 252.5825s-5.606-1.71-7.151-3.021c1.988-.745 3.972-1.498 5.95-2.269 4.027-1.569 8.255-3.123 12.306-5.007-.504 1.129-1.136 2.197-1.754 3.302-.606 1.082-1.315 3.03-2.567 3.537-1.028.416-1.904 1.242-1.864 2.463.033 1.024-.609 2.255-1.413 2.722-.361.209-.844.251-1.213.482-.632.395-.855.988-1.31 1.518-.027.041-.047.074-.064.103-.143.034-.286.06-.432.067-.205.015-.417.039-.629.068.133-.112.274-.222.421-.327.109-2.119-.28-3.638-.28-3.638" mask="url(#d)"/>
    <path fill="#BED0E5" d="M938.6488 252.2231c-1.262-.385-3.172-2.046-3.768-2.966-1.608-2.485-1.589-5.582-1.496-12.11.095-6.528-.055-6.906-.055-6.906s-.227-6.174 9.931-6.837c10.158-.662 12.509 8.61 12.509 10.312 0 .585-.155-1.802-.359.868 0 0 1.675-.419 1.794 1.576.257 4.268-2.997 4.921-2.997 4.921.201 3.931-3.861 11.501-10.416 11.501-3.62 0-3.881.027-5.143-.359" mask="url(#d)"/>
    <path fill="#102337" d="M933.4115 234.2847s-2.163-1.506-2.636-2.424c-.471-.918-.135-2.196.682-2.282 0 0 1.208-1.984 1.871-4.762.663-2.777.734-7.612 5.907-6.816 5.174.797 7.961 4.09 7.961 4.09s1.351.996 2.652.672c1.301-.325 3.228-.615 4.523-.501 1.757.154 3.033 1.109 3.436 1.892.65 1.269.329 4.697.329 4.697-.432.182-.902 5.208-.902 5.208l-1.396 5.118s-3.126-.158-3.99-1.336c-.865-1.179-1.196-2.708-1.005-3.486.189-.778 2.022-4.48 2.022-4.48s-1.346.601-4.252.435c-2.907-.166-6.058-1.039-6.058-1.039s1.314 1.493 2.629 1.553c1.316.061-2.748 1.149-5.987.886-3.238-.264-5.855-.78-5.855-.78l.069 3.355z" mask="url(#d)"/>
    <path fill="#BED0E5" d="M953.0209 239.6802s-1.23-2.656.191-4.123c1.66-1.714 3.627-1.609 3.939-.207.583 2.624-.728 4.212-.728 4.212s-1.22 1.723-2.6 1.363c-.913-.238-.839-1.204-.859-1.726l.057.481z" mask="url(#d)"/>
    <path fill="#DAE8F7" d="M962.9379 270.3599c0-.196-2.437-11.278-2.437-11.278l-4.356-2.256-1.891-.559s-.904 3.153-4.023 3.495c-3.12.344-5.947-.294-6.971-.735-1.023-.441-1.031-2.48-1.031-2.48l-4.978 1.407-1.658 14.416 27.345-2.01z" mask="url(#d)"/>
    <path fill="#57B4E5" d="M975.8461 348.7104c-7.759 4.156-16.76 5.659-25.534 5.134-8.775-.527-17.348-3.01-25.452-6.434-.13.906-.261 1.812-.392 2.718-.037.259-.07.545.071.766.129.201.369.295.592.376 3.712 1.346 7.424 2.694 11.136 4.041 2.438.885 4.882 1.772 7.395 2.414 10.145 2.591 21.29.954 30.275-4.45.709-.425 1.432-.902 1.844-1.624.493-.865.429-2.02-.157-2.825" mask="url(#d)"/>
    <path fill="#BCDFF7" d="M953.6722 258.4458c-1.037.828-2.735 1.396-4.031 1.479-8.895.572-7.795-3.16-7.856-3.252l.424-.125s-.009 2.946 7.232 2.458c3.131-.21 4.794-2.739 4.794-2.739l.771.228c-.345.775-.757 1.49-1.334 1.951" mask="url(#d)"/>
    <path fill="#76C0E8" d="M957.9398 229.9292s-8.353 2.418-17.541 2.164c-9.188-.255-18.784-3.498-13.878-4.657 0 0 3.569-.983 6.204-1.574 1.239 1.866 3.639 2.49 5.829 2.916 6.384 1.239 19.386 1.151 19.386 1.151" mask="url(#d)"/>
    <path fill="#76C0E8" d="M932.725 225.8618c1.239 1.866 3.639 2.49 5.829 2.916 6.384 1.239 19.386 1.151 19.386 1.151.498-4.403 1.548-7.575-4.245-13.969-2.617-2.888-8.756-3.563-11.085-3.014-2.329.549-7.494 2.167-8.657 7.62-.202.943-1.228 5.296-1.228 5.296M976.2767 346.4009c.146-1.726-3.342-11.32-3.13-19.489.037-1.448.071-2.788.104-4.054-1.31-5.063-3.34-14.111-3.448-21.886-.135-9.729 1.413-32.275 1.897-39.037-1.071-.499-2.441-.985-4.196-1.607-.939 5.802-2.266 25.341-2.266 25.341h-29.646c-.197-6.223-3.169-21.085-4.069-25.469-1.285.587-2.617 1.235-4.012 1.961.907 5.263 3.094 20.312 1.823 36.869-1.083 14.104-4.034 21.263-5.786 24.375-.472 5.743-.852 11.557-.57 15.723.259 3.824 3.709 5.841 3.709 5.841l-.259.232s-1.597-2.636-1.712 3.219c-.05 2.611-.465 4.968-.909 6.783-.185.001-.372.002-.557.003-.63 2.526-1.642 6.995-1.949 10.723-.514 6.259-.925 5.755-1.544 14.739-.157 2.28-1.205 39.066-1.25 41.269 4.251.193 8.5-.132 12.749 0 2.761.086.06-.057 2.823 0 .202-1.824 6.829-37.413 7.042-38.953 1.272-9.178 3.678-17.238 4.277-21.059l.751-.359c.09 1.062 1.413 2.083 1.5 3.052.661 7.29 4.788 46.293 10.395 57.319 1.858.006 1.601.026 1.407.033.166-.005.57-.014 1.439-.033 3.46-.073 4.44.172 7.895 0-.174-2.611 3.134-38.439 3.134-38.439s1.183-2.528 2.333-13.028c.531-4.85.373-8.883-.038-12.374.002-4.452 1.761-8.112 2.063-11.695" mask="url(#d)"/>
    <path fill="#57B4E5" d="M926.6869 344.9692l-.259.231s-1.597-2.635-1.712 3.218c-.049 2.53-.439 4.822-.867 6.613.15.044.301.079.449.134 1.747.656 4.903 2.366 6.825 2.075-.119-.279 1.679-2.516 2.021-2.889 4.089-4.458 9.934-5.619 15.697-6.183 4.996-.489 10.486-.297 14.808 2.528.267.173 1.559 1.028 2.289 1.627.121-.006.242-.01.363-.015 2.324-2.38 5.676-3.553 9.25-2.571.257.071.51.16.76.254-.103-1.22-.133-2.412-.034-3.59.146-1.725-3.342-11.321-3.13-19.49.037-1.448.071-2.788.103-4.053-1.309-5.064-3.339-14.112-3.447-21.886-.058-4.157.193-10.656.534-17.263-.99 6.884-1.269 13.511-.753 20.495.279 3.767-.134 7.528-.283 11.288-.125 3.14.209 6.261.105 9.4-.195 5.772-1.114 12.462-5.185 16.872-4.397 4.764-12.395 7.782-18.453 4.814-2.214-1.085-2.812-4.255-1.636-6.277.59-1.016 1.455-1.667 2.429-1.983.001-.001.002-.003.004-.005 1.182-1.912 2.853-3.503 4.3-5.207.136-.161.25-.298.355-.426-.256-.093-.483-.176-.641-.232-1.552-.54-3.094-1.132-4.343-2.233-1.2-1.059-2.037-2.427-2.702-3.874-.342-.745-.665-2.085-1.352-2.527-1.082-.699-3.048-.436-4.294-.905-1.83-.689-3.359-1.802-4.583-3.329-2.069-2.581-2.741-5.708-2.973-8.952-.2-2.788-.082-5.445-.455-7.881-.177-1.157-.368-2.313-.564-3.467-1.099 13.936-4.023 21.031-5.765 24.125-.472 5.743-.852 11.557-.57 15.722.259 3.824 3.709 5.842 3.709 5.842" mask="url(#d)"/>
    <path fill="#76C0E8" d="M928.6537 261.5767c.984-.494 1.939-.952 2.869-1.377.384 1.867 1.143 5.634 1.902 9.824-1.152-3.022-2.771-5.876-4.771-8.447" mask="url(#d)"/>
    <path fill="#1499D7" d="M935.1361 284.4976c.099-.679.16-1.358.207-2.037.086.793.153 1.536.198 2.207-.146-.005-.292-.008-.438-.013.011-.053.026-.103.033-.157" mask="url(#d)"/>
    <path fill="#76C0E8" d="M967.4867 260.4351c.006-.034.012-.073.017-.107 1.755.623 3.125 1.108 4.196 1.608-.19 2.653-.544 7.741-.896 13.529-.103-5.33-.82-10.614-3.317-15.03" mask="url(#d)"/>
    <path fill="#D9EDFC" d="M935.8119 345.8491c-.53-1.217-11.208-3.519-11.208-3.519l-.021.204c-.474-.128-.775-.204-.775-.204s-1.525 1.001-1.791 2.835c-.265 1.835-.597 9.908 0 11.442.598 1.534 7.783 5.226 11.023 4.693 2.16-.355 1.976-.823 2.16-3.198.184-2.375 1.142-11.035.612-12.253" mask="url(#d)"/>
    <path fill="#1499D7" d="M964.3451 350.3599s.198-4.496-.841-6.263c-1.038-1.765-2.822-3.552-2.822-3.552s-1.898 3.928.036 8.435c1.934 4.506 2.249 3.533 2.249 3.533l1.378-2.153z" mask="url(#d)"/>
    <path fill="#BCDFF7" d="M969.2953 348.2661l-1.749-10.692s-1.507.07-2.829.319c-1.322.249-1.352 1.23-1.352 1.23l2.492 10.82 3.438-1.677zM974.3959 346.6763l-2.046-12.308-3.228.423-.85 1.533 2.121 11.734 1.509-.533-2.235-11.736 2.502 12.322z" mask="url(#d)"/>
    <path fill="#97CEF1" d="M976.5541 343.6216s-14.745 2.026-16.366 4.15c-1.622 2.125-1.713 7.437-.877 11.043.835 3.607 1.076 7.889 5.054 6.969 3.977-.92 10.665-3.723 12.53-4.648 1.865-.926 3.116-2.463 3.281-6.061.164-3.599-.899-10.331-1.394-11.039-.497-.708-2.228-.414-2.228-.414" mask="url(#d)"/>
    <path fill="#BCDFF7" d="M965.9183 285.4878c-.068-.002-.134-.018-.201-.024.032-.096.061-.206.09-.323.143.16.3.29.452.371-.119-.008-.235-.017-.341-.024m-1.973 1.035c.456 1.008 1.774.629 2.695.734.758.085 1.565.004 2.328-.013.442-.01.921-.002 1.3-.327.666-.574.641-1.559.474-2.448-.005-.31-.108-1.534-.183-1.828-.369-1.433-3.831-.977-5.683-1.019-.29-.007-.373.251-.267.566.212.626-.328 1.403-.419 2.008-.076.512-.449 1.874-.245 2.327M934.5219 283.2681c-.107-.173-.23-.335-.354-.459.245.017.4.051.415.107.036.141.006.255-.061.352m-4.205 1.822c-.022-.261-.026-.536-.024-.812.145.337.34.594.571.787-.18.02-.374.037-.547.025m-.754.802c.741 1.08 1.703.912 2.708.906.771-.005 1.54-.009 2.311-.013.398-.002 1.002.129 1.377-.121.954-.634.248-2.929.107-3.967-.085-.623-1.283-1.79-1.305-1.163-.548-.386-1.149-.402-1.825-.397-1.208.01-2.415.041-3.623.061-.197.004-.274.09-.274.365.003 1.415-.255 3.194.524 4.329" mask="url(#d)"/>
    <path fill="#FCBC5E" d="M968.7758 342.7632c-.087-2.617-.828-11.134-.789-12.32.76.097 3.622 2.417 4.26 5.862.844 4.562-.751 7.282-2.17 8.008.337.338.2 1.029-.126 1.367-.325.337-.767.454-1.153.685-.772.46-1.072 1.532-1.592 2.36-4.08 6.486-.593 13.088-.227 14.053.279.734.784 1.321 1.069 2.052.287.732.252 1.77-.335 2.126-.627.38-1.358-.267-1.83-.917-2.134-2.943-3.168-7.001-2.757-10.828.175-1.641 1.179-7.054 4.723-9.619-.261-.484-.233-1.141.001-1.631.236-.491.65-.828 1.095-1.011.239-.098.499-.163.687-.364.189-.201-.856.177-.856.177" mask="url(#d)"/>
    <path fill="#FCBC5E" d="M968.64 342.7671c-.508-2.558-1.692-10.996-1.998-12.134-.713.307-2.958 3.351-2.796 6.863.216 4.652 2.377 6.839 3.914 7.145-.25.422.04 1.052.431 1.288s.845.227 1.27.341c.854.231 1.385 1.184 2.077 1.841 5.418 5.138 3.539 12.502 3.402 13.538-.104.789-.459 1.497-.571 2.285-.11.788.158 1.783.807 1.964.693.193 1.254-.637 1.563-1.398 1.4-3.444 1.481-7.66.217-11.251-.542-1.539-2.739-6.498-6.75-7.991.144-.542-.032-1.169-.371-1.579-.339-.409-.815-.619-1.288-.672-.254-.028-.52-.018-.748-.161-.227-.141.841-.079.841-.079" mask="url(#d)"/>
    <path fill="#B2BECC" d="M906.4935 337.3989l38.461-5.586-.269 3.048 3.55 18.168-38.516 2.594-3.665-14.798z" mask="url(#d)"/>
    <path fill="#99AABC" d="M923.8607 334.2397l-.596-4.232c-.033-.238.01-.476.117-.656.051-.085.165-.231.344-.257l15.62-2.277c.02-.002.037-.003.055-.003.155 0 .282.094.347.154.153.142.259.36.293.597l.595 4.233c.064.449-.147.867-.461.912l-15.995 2.276c-.177.025-.328-.083-.401-.15-.152-.143.115-.36.082-.597m-2.668-3.991l.595 4.233c.098.696.415 1.323.893 1.768.431.4.948.612 1.478.612.094 0 .188-.007.282-.02l15.995-2.278c1.255-.178 2.163-1.425 1.954-2.905l-1.014-4.335c-.098-.696-.052-.947-.53-1.391-.506-.471-1.846-.58-2.474-.49l-15.281 2.175c-.627.09-1.17.466-1.528 1.06-.337.56-.469.875-.37 1.571" mask="url(#d)"/>
    <path fill="#99AABC" d="M944.9545 331.813l16.052-2.619-38.835 5.141-15.678 3.064z" mask="url(#d)"/>
    <path fill="#BED0E5" d="M944.9545 331.813l16.052-2.619.969 2.351s2.117 18.042 1.478 18.626c-.639.584-15.218 2.858-15.218 2.858l-3.55-18.168.269-3.048z" mask="url(#d)"/>
    <path fill="#99AABC" d="M906.0609 340.8521l-.007-.027.44-3.426 38.461-5.586-.269 3.048z" mask="url(#d)"/>
    <path fill="#99AABC" d="M944.9545 331.813l16.052-2.619.969 2.351-17.29 3.316z" mask="url(#d)"/>
    <path fill="#BED0E5" d="M935.5111 335.5249s.374 2.004.749 3.385c.374 1.382.499 1.937 0 1.942-.5.004-3.496.26-3.496.26l-1.498-4.784s.062-.295 1.935-.803 2.31 0 2.31 0M915.724 338.5327s-.312.063-1.873.314l-1.561.251s1.062 3.804 1.249 4.207c.187.404 3.308-.251 3.308-.251l-1.123-4.521zM904.3636 300.813c.41-1.351.995-2.913 1.68-4.571 2.431.565 4.867 1.105 7.266 1.722 1.521.391 3.043.806 4.548 1.278-.758 1.493-1.587 3.007-2.646 4.492.072.043.993 2.096 1.222 2.456 2.983 3.204 8.536 9.933 12.087 14.1.492.35 1.026.627 1.613.78 1.212.318 2.531.081 3.717.487 1.213.415 3.142 2.916 2.858 3.748-.036.108-.155.241-.312.384l-2.253.33c-.513-.847.258-1.283.022-1.661-.393.223-.507.769-.367 1.201.108.336.334.614.586.863l.003.002.004.004c.071.07.143.136.216.201.01.008.064.04.152.09l.003.002c.022.013.046.027.073.041.055.031.121.067.194.107l.003.002h.001c.916.499 3.069 1.618 4.055 1.942 1.238.406.436 1.698.325 1.949-.286.641-.85.679-1.512.499.231.456-.395 1.509-.522 1.616-.297.249-.735.268-1.227.167-.117.208-.822 1.364-1.889 1.064-.245-.069-.573-.248-.929-.481.02.251-.595.646-1.305.53-1.145-.188-4.52-3.156-5.104-4.165-1.202-2.076-.858-2.49-1.406-3.359-.334-.528-.762-1.467-1.236-1.874-21.521-18.439-21.323-18.874-21.257-19.136-.763-.882.266-4.589 1.337-4.81" mask="url(#d)"/>
    <path fill="#BCDFF7" d="M961.3881 359.853s2.005-.161 3.779-.312c1.774-.152 4.128-1.302 4.128-1.302s-.352-.718-.249-2.048c.105-1.33-.478-1.455-.478-1.455s-1.6 1.129-3.401 1.416c-1.801.286-4.129.09-4.129.09l.35 3.611zM973.2767 357.1245s1.306-.42 3.079-.571c1.775-.153 2.411-.492 2.411-.492s-.352-.718-.248-2.048c.104-1.33-.479-1.455-.479-1.455s.118.319-1.684.605c-1.801.287-3.429.35-3.429.35l.35 3.611z" mask="url(#d)"/>
    <path fill="#AEC1D3" d="M1068.226 237.6519s-.784 5.453-3.958 6.026c-3.174.575-3.958 0-3.958 0s2.71 7.749 1.283 12.843c-1.426 5.094-3.28 10.331-9.699 14.421-6.419 4.089-6.419 4.089-7.56 8.34-1.055 3.932 4.319 18.777-.947 25.619-7.965 10.348-28.071 6.045-26.225-12.723.816-8.307 5.918-13.417 9.627-15.138l3.709-1.722s-2.924-2.367-1.854-6.099c1.069-3.73 2.781-4.376 7.132-6.457 4.35-2.08 12.623-5.81 16.189-11.12 3.566-5.308 3.902-8.261 4.231-16.041.007-.158-1.25-10.412 4.479-9.281 0 0 15.61-10.338 21.702 5.552.558 1.452-2.197 5.027-5.255 6.003-4.084 1.302-8.896-.223-8.896-.223" mask="url(#d)"/>
    <path fill="#76C0E8" d="M1084.1234 234.6851c.014-.104.005-.148-.187-2.97-.238-3.478-.227-3.35-.242-3.572-.163-2.447-.062-4.477-2.156-6.631-1.415-1.456-3.847-1.919-5.856-2.155-2.992-.353-5.72-1.698-9.19-1.1-2.383.412-5.598 1.123-7.718 3.905-2.061 2.707-3.26 3.795-2.92 8.092.329 4.127-.077 4.802.29 5.744.794 2.05 27.443 2.826 27.979-1.313" mask="url(#d)"/>
    <path fill="#56B3E4" d="M1066.6302 218.2153c0 .589 7.802-1.468 8.07 7.375.125 4.123.249 6.378.225 12.644l6.601-1.165c.177-3.326.438-6.042.512-9.642.064-3.061 1.051-7.537-2.11-9.003-3.131-1.452-7.263-.955-9.866-.583l-3.432.374z" mask="url(#d)"/>
    <path fill="#56B3E4" d="M1083.9945 235.0649s2.634 2.152 6.594 3.711c-11.958 1.31-18.631 1.364-30.295-1.594 13.899.529 17.027.167 17.027.167s4.285-.424 6.674-2.284" mask="url(#d)"/>
    <path fill="#57B4E5" d="M973.1459 313.0454c4.58 3.441 22.912 14.418 26.809 15.803 1.539.548 2.073.26 2.073.26s1.717-.403 2.975-2.189c1.259-1.785.244-3.083.244-3.083s-11.633-15.97-23.293-22.983c-1.715-1.033-2.583-1.482-2.348-5.9.163-3.057-4.713 2.067-8.885 1.51-2.467-.33-7.535-1.788-8.362.52-.281.784.162 4.919.162 4.919.202 5.028 7.03 8.442 10.625 11.143M1008.1732 361.814c2.118-10.053 2.696-.616 3.264 7.616.323 4.697 3.303 45.189 4.116 52.507h-.936 14.035c3.541-39.432 5.407-90.685 5.407-90.685l-54.088 1.166s-.093 71.268 7.868 89.519h13.276c.731-12.84 6.405-57.019 7.058-60.123" mask="url(#d)"/>
    <path fill="#57B4E5" d="M1057.3881 295.9565c-1.926-15.069-5.153-37.264-8.515-44.048-3.362-6.783-9.595-9.308-16.032-12.514-2.774-1.38-5.621-2.746-9.879-4.045l-1.501-5.004s.399-.852-.373-1.336c-1.089-.684-8.018-.054-8.018-.054l-11.902 1.813s-5.713-.186-5.869 1.379c-.156 1.565-.156 2.726-.156 2.726s-22.318 9.067-26.491 20.046c-4.173 10.979-6.528 20.129-6.42 39.396.106 19.267 15.62 10.01 15.62 10.01s-.623.062.937-.887c.247-.15.406-.415.417-.706.166-3.907 1.6-30.874 1.898-26.713.301 4.208 1.779 26.154 1.779 26.154s.428 2.475.642 7.534c.214 5.06-.844 14.584-.844 14.584s11.021 5.382 26.536 5.059c15.516-.324 24.075-3.337 24.075-3.337s2.735 2.524 2.705-4.901c-.012-3.348 1.065-36.009.894-40.489 0 0-.571-10.217-.493-10.048-.033-.561 3.788 23.784 3.816 24.634.128 3.892-3.705 4.541-3.705 4.541l-.477 19.185s23.283-7.91 21.356-22.979" mask="url(#d)"/>
    <path fill="#57B4E5" d="M1009.1888 247.6382c-.28-2.658-.832-5.43-.142-8.074 1.528-5.85 4.382-6.234 8.855-8.877l-.153-.51-.867-1.067-3.999-.921-11.715 2.58s-5.712-.187-5.869 1.379c-.156 1.564-.156 2.726-.156 2.726s-1.53.623-3.855 1.734c-.006.246-.035.501-.119.775-1.077 3.501 4.653 5.126 7.071 6.318 3.436 1.695 5.822 3.957 8.092 7.092 1.382 1.91 2.521 3.915 3.475 5.987-.102-3.052-.297-6.098-.618-9.142" mask="url(#d)"/>
    <path fill="#EDEDED" d="M1009.8871 261.4546s-.604-6.583-1.017-8.922c-.412-2.34-2.921-12.156-2.921-12.156l-.785-3.647s-.127-.187-.958-.731c-.831-.543-4.096-1.014-4.949-1.51l-.852-.497.282-7.234 19.971-2.937v8.926s-.581.715-2.097 1.827c-1.516 1.113-3.46 2.39-4.993 2.933-1.533.544-1.583 3.773-1.604 6.926-.021 3.151-.077 17.022-.077 17.022" mask="url(#d)"/>
    <path fill="#DADADA" d="M998.6869 226.7563l-.122 3.131c.844.92 1.832 1.698 3.025 2.242 2.304 1.05 5.062 1.406 6.595 3.672 1.008 1.489.852 3.097.582 4.781-.287 1.798.037 3.519.501 5.261.247.928.47 1.851.674 2.775.009-1.831.016-3.369.022-4.186.021-3.153.072-6.382 1.604-6.926 1.533-.543 3.477-1.819 4.993-2.933 1.517-1.112 2.098-1.827 2.098-1.827v-8.926l-19.972 2.936z" mask="url(#d)"/>
    <path fill="#EDEDED" d="M995.1302 203.5796c-.137 2.079-.272 4.158-.409 6.237.249-.744.502-1.509.469-2.294-.034-.785-.415-1.605-1.125-1.931-.762-.349-1.712-.023-2.262.612-.551.634-.757 1.506-.776 2.348-.067 3.165 2.185 5.854 3.142 8.87.443 1.395.607 2.867 1.023 4.271.877 2.965 2.846 5.506 5.149 7.557 1.868 1.663 4.059 3.082 6.52 3.481 4.058.658 8.186-1.662 10.606-5.003 2.419-3.341 3.377-7.538 3.744-11.655.368-4.117.203-8.272.656-12.382" mask="url(#d)"/>
    <path fill="#EDEDED" d="M994.7484 203.2856c-.163 4.023-.587 8.048-.38 12.069.208 4.022 1.092 8.112 3.317 11.459 2.224 3.348 5.957 5.848 9.959 5.846 3.736-.003 7.253-2.177 9.52-5.163 2.268-2.986 3.41-6.7 3.954-10.417.543-3.718.529-7.491.724-11.244.151-2.938.373-6.115-1.222-8.582-1.797-2.777-5.344-3.776-8.616-4.156-3.876-.45-7.962-.297-11.447 1.469-3.485 1.768-6.212 5.443-5.96 9.361" mask="url(#d)"/>
    <path fill="#1D3F56" d="M1019.3529 217.7173c-.487 2.238-.271 3.309-1.649 4.17-1.225.765-2.765.933-3.953-.598-.592-.763-.952-2.128-2.078-2.501-2.004-.665-5.266-.631-6.938-.223-.954.231-1.514 1.453-1.819 1.978-1.614 2.78-2.523 1.848-4.694.056-2.123-1.752-1.541-11.121-2.398-16.547-.534-3.39 4.615-4.836 5.153-1.43.039.249.054.497.082.745 1.464-1.493 3.844-1.295 5.778-1.278 3.764.032 7.525-.062 11.29.038 1.445.039 2.675 1.206 2.672 2.688-.009 4.553-.475 8.441-1.446 12.902m1.268-20.464c-1.797-2.776-5.344-3.775-8.617-4.155-3.876-.45-7.962-.299-11.447 1.469-3.484 1.767-6.212 5.442-5.96 9.36l.152-.642c-.165 4.024-.587 8.048-.379 12.07.206 4.021-.599 6.151 1.626 9.499 2.224 3.348 7.333 7.807 11.336 7.805 3.736-.003 8.762-3.271 11.374-5.957 2.638-2.714 2.183-6.025 2.727-9.743s.215-7.371.409-11.124c.152-2.937.373-6.115-1.221-8.582" mask="url(#d)"/>
    <path fill="#57B4E5" d="M1023.1429 199.1567c-1.841 1.507-3.956 1.926-6.32 2.128-7.236.621-14.534.476-21.74-.43-.515-.064-1.066-.149-1.448-.505-.489-.453-.549-1.196-.569-1.865-.082-2.678-.06-5.388.567-7.991.627-2.604 1.908-5.118 3.977-6.805 1.65-1.346 3.714-2.098 5.804-2.484 3.309-.61 6.708-.35 10.062-.087 1.565.122 4.012.539 5.346 1.371 1.611 1.006 2.547 2.914 3.199 4.705 1.432 3.927 1.252 7.783 1.122 11.963" mask="url(#d)"/>
    <path fill="#EDEDED" d="M1021.89 206.4302c.473-.603 1.44-.649 2.068-.213.628.437.933 1.238.934 2.006.001.769-.261 1.512-.573 2.213-.92 2.067-1.532 3.658-2.885 5.469" mask="url(#d)"/>
    <path fill="#76C0E8" d="M1000.6107 182.0483c.406-.237 1.217-.403 4.013-.383.821.006 1.12.448 1.261 1.12.065.31.052.796.056 1.729.022 4.733-.091 8.805-.169 13.538l7.782-.133c.239-4.958.477-8.242.716-13.2.06-1.249.298-3.072-.147-3.8-.431-.704-1.559-1.313-2.579-1.325-1.651-.02-3.591.144-5.102.429-2.969.56-4.564 1.419-5.603 1.81" mask="url(#d)"/>
    <path fill="#57B4E5" d="M988.8842 282.064s-.357-6.856-.76-11.284c-.219-2.404-.561-4.948-.829-6.77-.225-1.533-.397-2.555-.397-2.555 0-.54.439-.983.976-.983l14.153-1.478c.537 0 .976.442.976.982 0 0 .194 1.725.408 8.353.122 3.77.159 10.143.144 12.682" mask="url(#d)"/>
    <path fill="#1499D7" d="M987.723 264.2505s7.55 3.097 8.503 3.097c.952 0 6.717-5.16 6.717-5.16l.405-.242s.286-.905.186-1.846c-.102-.942-.671-1.233-1.241-1.23-.569.002-11.714 1.107-12.731 1.312-1.017.204-3.322.229-3.268 1.24.055 1.01.218 1.842.34 2.292.121.45 1.089.537 1.089.537" mask="url(#d)"/>
    <path fill="#57B4E5" d="M987.9086 264.0737s7.182 2.782 8.135 2.782c.952 0 7.085-5.159 7.085-5.159l.405-.242s.101-.905 0-1.847c-.102-.94-.671-1.232-1.24-1.229-.57.002-11.714 1.106-12.732 1.311-1.016.204-3.322.231-3.267 1.24.054 1.01.218 2.157.34 2.607.121.449 1.274.537 1.274.537" mask="url(#d)"/>
    <path fill="#1499D7" d="M996.226 265.3823c0-.191-.155-.347-.346-.347-.19 0-.344.156-.344.347 0 .192.154.348.344.348.191 0 .346-.156.346-.348" mask="url(#d)"/>
    <path fill="#D0DDEF" d="M981.0941 324.0015l-1.123 8.416s21.679 6.942 30.58 6.377c8.901-.564 24.068-4.682 24.068-4.682v-8.556s-17.138 4.387-28.229 3.807c-11.092-.579-25.296-5.362-25.296-5.362" mask="url(#d)"/>
    <path fill="#DAE8F7" d="M1038.7123 323.1743c-.321-2.22-2.167-3.431-2.167-3.431s-.36.089-.937.246l-.026-.246s-12.92 2.785-13.561 4.258c-.643 1.474.516 11.952.739 14.826.223 2.873 0 3.44 2.614 3.87 3.92.646 12.615-3.822 13.338-5.678.722-1.858.32-11.625 0-13.845" mask="url(#d)"/>
    <path fill="#57B4E5" d="M1008.9388 329.3638s.357-17.177.653-28.716c.295-11.539.295-29.815.295-21.763 0 .826.58 1.666.58 2.513 0 .901-.58 1.811-.58 2.723v20.472c0 7.428-.948 24.771-.948 24.771" mask="url(#d)"/>
    <path fill="#139AD7" d="M998.5306 230.769s-1.443.136-2.85.832c-1.021.507.253 1.241.253 1.241s2.787 1.476 5.428 2.312c.669.212 2.845.844 2.845.844l-5.167-2.455s-.458-.173-.488-1.156c-.031-.981-.021-1.618-.021-1.618" mask="url(#d)"/>
    <g transform="translate(995 318)">
      <mask id="f" fill="#fff">
        <use xlink:href="#e"/>
      </mask>
      <path d="M2.064 5.782C.539 8.207.629 14.499.629 14.499l1.837 3.067s.4 1.372 3.289-4.844C8.644 6.507 6.156.936 6.156.936S3.588 3.357 2.064 5.782" mask="url(#f)"/>
    </g>
    <g>
      <path fill="#D0DDEF" d="M988.7982 329.3638l2.889-14.867s2.102.161 3.94.564c1.838.405 1.838 1.777 1.838 1.777l-3.933 15.014-4.734-2.488z"/>
      <path fill="#DAE8F7" d="M981.7367 326.9282l3.37-17.114 4.494.726 1.123 2.18-3.45 16.307-2.087-.808 3.612-16.306-4.009 17.114z"/>
      <path fill="#76C0E8" d="M978.847 322.5688s20.522 3.451 22.699 6.488c2.178 3.037 2.084 10.464.767 15.469-1.318 5.005-1.831 10.979-7.353 9.525-5.52-1.453-14.749-5.65-17.316-7.022-2.568-1.372-4.253-3.572-4.334-8.607-.08-5.036 1.685-14.4 2.408-15.369.722-.968 3.129-.484 3.129-.484"/>
      <path fill="#FCBC5E" d="M1017.4691 268.4409s3.06.201 6.502 0c3.443-.2 5.165-.168 5.165-.168 1.332-.228 1.538-.47 1.538-1.249v-5.689c0-.781-.597-1.313-1.7-1.54-1.105-.228-11.505.122-11.505.122-.779 0-1.581.661-1.61 1.233 0 0-.052.821.051 2.51.103 1.689.141 3.461.141 3.461 0 .682.639 1.32 1.418 1.32"/>
      <path fill="#10A4D6" d="M994.0511 200.5151c8.606.469 15.86 1.078 24.434.314 1.233-.11 2.542-.273 3.469-.928.395-.279.732-.65 1.242-.756.417-.086 1.668 1.046 3.45 2.337-4.779 2.209-13.43 2.766-22.425 2.612-2.132-.037-4.282-.104-6.352-.515-2.069-.411-3.402-2.243-4.82-3.513"/>
      <path fill="#76C0E8" d="M1009.2142 329.1626s.809-16.46.966-27.807c.157-11.347.225-41.182.225-41.182s-.385-16.09.01-19.105c.396-3.013.843-4.606 1.478-1.755.634 2.853 2.024 6.553 2.596 7.375l.573.823s5.394-8.059 5.884-8.634c.491-.576 2.78-2.96 2.535-3.947-.246-.987-1.359-4.194-1.359-4.194s-.082-.611-.348-1.125c-.114-.217-.291-.467-.656-.637-1.226-.577-2.452-.282-2.452-.282l1.05.048s2.06.028 1.803 1.174c-.28 1.245-5.885 5.921-8.419 6.989-1.323.558-1.917.94-1.917.94"/>
      <path fill="#76C0E8" d="M1009.2172 329.3501s.362-15.893.662-27.646c.301-11.752 1.429-27.58.45-38.629-1.088-12.28-4.409-24.132-4.409-24.132s-.303-1.078-.597-1.884c-.318-.874-.487-.856-.976-1.096-.488-.239-5.796-2.685-5.796-2.685l-.035-2.743s-.655.033-1.999.435c-1.345.401-1.334 1.352-1.334 1.352s-.045 4.157 0 5.139c.044.983 7.639 7.134 7.639 7.134s.655-3.84.779-7.134c.124-3.294 1.637.056 1.637.056s1.529 5.716 2.525 11.411c.731 4.178 2.417 15.572 2.417 15.572v15.037c0 .841-.058 1.739-.058 2.603 0 .917.058 1.801.058 2.731v20.852c0 7.565-.963 23.627-.963 23.627"/>
      <path fill="#139AD7" d="M998.5385 230.5249s-1.925.207-2.827.851c-.946.673.258 1.263.258 1.263s2.745 1.891 5.527 2.355c.359.059 1.148.36 1.804.626.568.23 1.225.43 1.225.43l-1.004-.466-4.39-2.231s-.587-.183-.617-1.183c-.031-1 .024-1.645.024-1.645"/>
    </g>
  </g>
</svg>
